<svg version="1.1" id="Layer_1" xmlns="http://www.w3.org/2000/svg" x="0" y="0" viewBox="0 0 1920 1080" xml:space="preserve">
  <style>
    .st1{fill:none;stroke:#575d2b;stroke-width:3;stroke-miterlimit:10}
  </style>
  <path d="M960 1063.4c122.7 0 237.5-22.2 335.7-73.4 39.9 7.5 82.5 10.6 126.4 6.5 179.4-16.8 317.4-113.9 332.8-249.7C1845.2 695.5 1905 633 1905 539.3c0-93.6-59.8-156.1-150.2-207.4-15.3-135.8-153.4-233-332.8-249.8-43.8-4.1-86.4-1-126.4 6.5-98.2-51.3-212.9-72.1-335.7-72.1S722.5 37.4 624.3 88.6C584.4 81.2 541.8 78 498 82.1c-179.4 16.8-317.4 114-332.8 249.8C74.8 383.2 15 445.7 15 539.3c0 93.6 59.8 156.1 150.2 207.4 15.3 135.8 153.4 233 332.8 249.8 43.8 4.1 86.4 1 126.4-6.5 98.1 51.2 212.9 73.4 335.6 73.4z" fill="#575d2b"/>
</svg>
