<svg version="1.1" id="Layer_1" xmlns="http://www.w3.org/2000/svg" x="0" y="0" viewBox="0 0 1080 1350" xml:space="preserve">
  <style>
    .st1{fill:none;stroke:#575d2b;stroke-width:3;stroke-miterlimit:10}
  </style>
  <path class="st1" d="M0 675c0 76.5 24.5 157.6 74.7 207.2-23.1 240.1 110.8 311.1 250.9 325.7C378.5 1294 444 1350 540.6 1350s162.1-56 215-142.1c140.1-14.6 277.7-94.2 251-325.7 57.1-53.7 73.3-124.2 73.3-207.2 0-85.9-16.3-152.7-73.3-207.2 33.8-229-110.8-311.1-250.9-325.7C702.8 56 637.3 0 540.7 0s-162.1 56-215 142.1C185.6 156.7 37.4 238 74.7 467.8 26.2 515.3 0 603.7 0 675z"/>
  <path class="st1" d="M16.9 675c0 83.3 23.8 152.6 72.4 200.7C67 1108.3 196.7 1177 332.4 1191.2c51.2 83.4 114.7 137.6 208.3 137.6 93.6 0 157-54.2 208.3-137.6 135.8-14.2 269-91.2 243.1-315.5 55.3-52.1 71-117.6 71-200.7 0-79.6-15.8-148-71-200.7C1024.8 252.5 884.7 173 749 158.8 697.7 75.4 634.3 21.1 540.7 21.1c-93.6 0-157 54.2-208.3 137.6-135.7 14.2-279.2 92.9-243.1 315.6-47 46-72.4 119-72.4 200.7z"/>
</svg>
