<svg version="1.1" id="Layer_1" xmlns="http://www.w3.org/2000/svg" x="0" y="0" viewBox="0 0 1920 1080" xml:space="preserve">
  <style>
    .st1{fill:none;stroke:#575d2b;stroke-width:3;stroke-miterlimit:10}
  </style>
  <path class="st1" d="M960 1080c124.7 0 241.3-21.9 341-74.7 40.6 7.7 83.8 9.9 128.4 5.7 182.3-17.3 323.5-116.5 339.1-256.6 91.8-52.9 151.6-118.4 151.6-215s-59.7-162.1-151.6-215C1752.9 184.2 1611.6 85 1429.4 67.6c-44.5-4.2-87.8-2-128.4 5.7C1201.3 20.5 1084.7 0 960 0S718.7 20.5 619 73.3c-40.6-7.7-83.8-9.9-128.4-5.7-182.2 17.4-323.4 116.5-339 256.7C59.7 377.2 0 442.7 0 539.3s59.7 162.1 151.6 215c15.6 140.1 156.8 239.3 339.1 256.7 44.5 4.2 87.8 2 128.4-5.7 99.6 52.8 216.2 74.7 340.9 74.7z"/>
  <path class="st1" d="M960 1063.4c122.7 0 237.5-22.2 335.7-73.4 39.9 7.5 82.5 10.6 126.4 6.5 179.4-16.8 317.4-113.9 332.8-249.7C1845.2 695.5 1905 633 1905 539.3c0-93.6-59.8-156.1-150.2-207.4-15.3-135.8-153.4-233-332.8-249.8-43.8-4.1-86.4-1-126.4 6.5-98.2-51.3-212.9-72.1-335.7-72.1S722.5 37.4 624.3 88.6C584.4 81.2 541.8 78 498 82.1c-179.4 16.8-317.4 114-332.8 249.8C74.8 383.2 15 445.7 15 539.3c0 93.6 59.8 156.1 150.2 207.4 15.3 135.8 153.4 233 332.8 249.8 43.8 4.1 86.4 1 126.4-6.5 98.1 51.2 212.9 73.4 335.6 73.4z"/>
</svg>
