<svg version="1.1" id="Layer_1" xmlns="http://www.w3.org/2000/svg" x="0" y="0" viewBox="0 0 1080 1350" xml:space="preserve">
  <style>
    .st1{fill:none;stroke:#575d2b;stroke-width:3;stroke-miterlimit:10}
  </style>
  <path d="M905 16.2H175c-9.9 0-18.3 7.3-19.7 17.2-9.4 63.5-59.1 113.9-121.9 123.4-9.8 1.5-17.1 9.8-17.1 19.6v997.1c0 9.9 7.3 18.1 17.1 19.6 62.8 9.6 112.6 59.9 121.9 123.4 1.5 9.8 9.8 17.2 19.7 17.2h730c9.9 0 18.3-7.3 19.7-17.2 9.4-63.5 59.1-113.9 121.9-123.4 9.8-1.5 17.1-9.8 17.1-19.6V176.4c0-9.9-7.3-18.1-17.1-19.6-62.8-9.6-112.6-59.9-121.9-123.4-1.4-9.9-9.7-17.2-19.7-17.2z" fill="#575d2b"/>
</svg>
