<svg version="1.1" id="Layer_1" xmlns="http://www.w3.org/2000/svg" x="0" y="0" viewBox="0 0 1920 1080" xml:space="preserve">
  <style>
    .st1{fill:none;stroke:#575d2b;stroke-width:3;stroke-miterlimit:10}
  </style>
  <path class="st1" d="M0 163.7v752.7c0 10.2 7.6 18.8 17.7 20.3 65.4 9.7 117.4 61 127.3 125.7 1.5 10.1 10.1 17.7 20.2 17.7h1589.6c10.2 0 18.7-7.5 20.2-17.7 9.9-64.7 61.8-116 127.3-125.7 10.1-1.5 17.7-10.1 17.7-20.3V163.7c0-10.2-7.6-18.8-17.7-20.3-65.5-9.7-117.4-61-127.3-125.7-1.5-10.2-10-17.7-20.2-17.7H165.2C155 0 146.5 7.5 145 17.7c-9.9 64.7-61.8 116-127.3 125.7C7.6 144.8 0 153.4 0 163.7z"/>
  <path class="st1" d="M16.2 175v730c0 9.9 7.3 18.3 17.2 19.7 63.5 9.4 113.9 59.1 123.4 121.9 1.5 9.8 9.8 17.1 19.6 17.1h1567.1c9.9 0 18.1-7.3 19.6-17.1 9.6-62.8 59.9-112.6 123.4-121.9 9.8-1.5 17.2-9.8 17.2-19.7V175c0-9.9-7.3-18.3-17.2-19.7-63.5-9.4-113.9-59.1-123.4-121.9-1.5-9.8-9.8-17.1-19.6-17.1H176.4c-9.9 0-18.1 7.3-19.6 17.1C147.2 96.2 96.9 146 33.4 155.3c-9.9 1.4-17.2 9.7-17.2 19.7z"/>
</svg>
