<svg version="1.1" id="Layer_1" xmlns="http://www.w3.org/2000/svg" x="0" y="0" viewBox="0 0 1920 1080" xml:space="preserve">
  <style>
    .st1{fill:none;stroke:#575d2b;stroke-width:3;stroke-miterlimit:10}
  </style>
  <path d="M19 540.4c.2 117.8 35.6 256 0 456.2l45.5 47.1c179.4-40.8 542.5 17.7 901.3 17.7v.2c359 0 715.6-58.5 895.1-17.6l44.8-44.3c-35.6-200.2-1.9-341.4-1.7-459.2v-1.3c-.2-117.8-33.9-257.4 1.7-457.6L1856 33.3c-179.4 40.8-531-15-889.8-15v-.2c-359 0-720.3 60.2-899.7 19.3L21 83.4c35.6 200.2-1.7 338-2 455.8v1.2z" fill="#575d2b"/>
</svg>
