<svg version="1.1" id="Layer_1" xmlns="http://www.w3.org/2000/svg" x="0" y="0" viewBox="0 0 1080 1350" xml:space="preserve">
  <style>
    .st1{fill:none;stroke:#575d2b;stroke-width:3;stroke-miterlimit:10}
  </style>
  <path d="M539.5 19c-117.8.2-256 35.6-456.2 0L36.1 64.5c40.8 179.4-17.7 251.3-17.7 610.1h-.2c0 359 58.5 436.8 17.6 616.2l44.3 44.8c200.2-35.6 341.4-1.9 459.2-1.7h1.2c117.8-.2 257.4-33.9 457.6 1.7l48.5-49.6c-40.8-179.4 15-252.2 15-611h.2c0-359-60.2-429.1-19.3-608.5l-46-45.5c-200.2 35.6-338-1.7-455.8-2h-1.2z" fill="#575d2b"/>
</svg>
