<svg version="1.1" id="Layer_1" xmlns="http://www.w3.org/2000/svg" x="0" y="0" viewBox="0 0 1920 1080" xml:space="preserve">
  <style>
    .st1{fill:none;stroke:#575d2b;stroke-width:3;stroke-miterlimit:10}
  </style>
  <path class="st1" d="M0 540.3c.3 121.9 36.5 258.3 0 465.5l55.9 55.8c184-42.3 535.9 17.9 903.9 17.9v.2c368.2 0 720.3-60.2 904.3-17.9l55.9-55.8c-36.5-207.2-.3-343.6 0-465.5v-1.2c-.3-121.9-36.5-258.3 0-465.5L1864.1 18C1680.1 60.2 1328.2.1 960.2 0v-.2C592-.2 239.9 60 55.9 17.7L0 73.6c36.5 207.2.3 343.5 0 465.5v1.2z"/>
  <path class="st1" d="M19 540.4c.2 117.8 35.6 256 0 456.2l45.5 47.1c179.4-40.8 542.5 17.7 901.3 17.7v.2c359 0 715.6-58.5 895.1-17.6l44.8-44.3c-35.6-200.2-1.9-341.4-1.7-459.2v-1.3c-.2-117.8-33.9-257.4 1.7-457.6L1856 33.3c-179.4 40.8-531-15-889.8-15v-.2c-359 0-720.3 60.2-899.7 19.3L21 83.4c35.6 200.2-1.7 338-2 455.8v1.2z"/>
</svg>
