<svg version="1.1" id="Layer_1" xmlns="http://www.w3.org/2000/svg" x="0" y="0" viewBox="0 0 2433.97 1753.01" xml:space="preserve">
  <style>
    .st1{fill:none;stroke:#e53a34;stroke-width:3;stroke-miterlimit:10}
  </style>
  <path class="st1" d="M2169.51 1.5H264.46c-16.47 0-30.22 12.26-32.62 28.66-15.55 106.09-97.96 190.2-201.99 206.19-16.23 2.49-28.34 16.3-28.34 32.83v1214.64c0 16.53 12.11 30.33 28.34 32.83 104.03 15.99 186.45 100.1 201.99 206.19 2.4 16.4 16.16 28.66 32.62 28.66h1905.05c16.47 0 30.22-12.26 32.62-28.66 15.55-106.09 97.96-190.2 201.99-206.19 16.23-2.49 28.34-16.3 28.34-32.83V269.18c0-16.53-12.11-30.33-28.34-32.83-104.03-15.99-186.45-100.1-201.99-206.19-2.4-16.4-16.16-28.66-32.62-28.66z"/>
  <path class="st1" d="M2148.16 27.76H285.81c-16.1 0-29.54 11.89-31.89 27.8-15.2 102.91-95.77 184.49-197.47 200.01-15.87 2.42-27.71 15.81-27.71 31.84V1465.6c0 16.03 11.84 29.42 27.71 31.84 101.7 15.51 182.27 97.09 197.47 200 2.35 15.91 15.8 27.8 31.89 27.8h1862.35c16.1 0 29.54-11.89 31.89-27.8 15.2-102.91 95.77-184.49 197.47-200 15.87-2.42 27.71-15.81 27.71-31.84V287.41c0-16.03-11.84-29.42-27.71-31.84-101.7-15.51-182.27-97.1-197.47-200.01-2.35-15.91-15.79-27.8-31.89-27.8z"/>
</svg>
