<svg
  xmlns="http://www.w3.org/2000/svg"
  viewBox="0 0 2000 2000"
  style="enable-background:new 0 0 2000 2000"
  xml:space="preserve"
>
    <path
      d="M-84.91-113.66v2145.22h2145.22V-113.66H-84.91zM1875 1607.32c0 16.53-12.22 30.34-28.59 32.83-104.92 15.99-188.04 100.1-203.72 206.19-2.42 16.4-16.29 28.66-32.9 28.66H390.21c-16.6 0-30.48-12.26-32.9-28.66-15.68-106.09-98.8-190.2-203.72-206.19-16.37-2.5-28.59-16.3-28.59-32.83V392.68c0-16.53 12.22-30.34 28.59-32.83 104.92-15.99 188.04-100.1 203.72-206.19 2.42-16.4 16.29-28.66 32.9-28.66h1219.58c16.6 0 30.48 12.26 32.9 28.66 15.68 106.09 98.8 190.2 203.72 206.19 16.37 2.5 28.59 16.3 28.59 32.83v1214.64z"
      style="fill:#e83662;stroke:#000;stroke-miterlimit:10"
    />
    <path
      d="M1870.56 339.78c-108.04-16.47-193.63-103.07-209.77-212.32-2.49-16.89-16.78-29.51-33.88-29.51H371.09c-17.1 0-31.39 12.62-33.88 29.51-16.14 109.24-101.73 195.85-209.77 212.32-16.86 2.56-29.44 16.78-29.44 33.8v1250.73c0 17.02 12.58 31.23 29.44 33.81 108.04 16.47 193.63 103.07 209.77 212.32 2.49 16.89 16.78 29.51 33.88 29.51h1255.82c17.1 0 31.39-12.62 33.88-29.51 16.15-109.24 101.74-195.85 209.77-212.32 16.86-2.56 29.44-16.78 29.44-33.81V373.58c0-17.02-12.58-31.23-29.44-33.8zm2.41 1265.77c0 16.51-12.2 30.29-28.55 32.79-104.79 15.97-187.82 99.98-203.48 205.95-2.42 16.38-16.28 28.63-32.87 28.63H389.93c-16.59 0-30.44-12.24-32.87-28.63-15.66-105.97-98.69-189.97-203.48-205.94-16.35-2.49-28.55-16.28-28.55-32.79V392.36c0-16.51 12.2-30.29 28.55-32.79 104.79-15.97 187.82-99.99 203.48-205.95 2.42-16.38 16.28-28.63 32.87-28.63h1218.15c16.59 0 30.44 12.24 32.87 28.63 15.66 105.97 98.69 189.98 203.48 205.95 16.35 2.49 28.55 16.28 28.55 32.79v1213.2h-.01z"
      style="fill:none;stroke:#fff;stroke-miterlimit:10"
    />
</svg>