<svg version="1.1" id="Layer_1" xmlns="http://www.w3.org/2000/svg" x="0" y="0" viewBox="0 0 1753 1753" xml:space="preserve">
  <style>
    .st1{fill:none;stroke:#575d2b;stroke-width:3;stroke-miterlimit:10}
  </style>
  <path d="M1468 27.8H285c-16.1 0-29.6 11.9-31.9 27.8-15.2 102.9-95.8 184.5-197.6 200-15.9 2.4-27.7 15.8-27.7 31.8v1178.2c0 16 11.9 29.4 27.7 31.8 101.8 15.5 182.4 97.1 197.6 200 2.4 15.9 15.8 27.8 31.9 27.8h1183c16.1 0 29.6-11.9 31.9-27.8 15.2-102.9 95.8-184.5 197.6-200 15.9-2.4 27.7-15.8 27.7-31.8V287.4c0-16-11.8-29.4-27.7-31.8-101.8-15.5-182.4-97.1-197.6-200-2.3-16-15.8-27.8-31.9-27.8z" fill="#575d2b"/>
</svg>
