<svg xmlns="http://www.w3.org/2000/svg" viewBox="0 0 768 768" style="enable-background:new 0 0 768 768" xml:space="preserve"><path d="m310.65 69.92.17.25.77-.3zM314.97 70.08c-.09-.13.02-.26-.07-.39l-2.78.67c.78 1.14 2.34-1.03 2.85-.28zM315.61 70.44c.8.62 1.38.07 1.65-.09-.47.42-1.62-.69-1.65.09zM381.4 92.96c-.07-.07-.17-.14-.25-.2.1.14.19.2.25.2z"/><path d="m402.41 96.93.12-.58c-1.82.88-3.95 1-6.05.89-2.11-.2-4.14-.72-6.14-1.22l.33-.1c-2.41-.92-4.56-2.28-6.48-3.91-.88-.9-1.85-1.72-2.6-2.74-.39-.49-.83-.96-1.19-1.48l-1.06-1.58-.53-.79-.46-.84-.92-1.68c-.61-1.13-1.06-2.34-1.61-3.52-.51-1.19-.88-2.44-1.33-3.68-.24-.64-.4-1.23-.55-1.79-.15-.56-.3-1.12-.46-1.68.08.08.22-.03.31.07-.27-.32-.64-.37-.71-.89.06-.29.22-.21.3-.11.01-.17.02-.33.02-.5 0-.08.01-.19-.02-.23l-.15.05c-1.99.69-5.25 2.84-6.64 2.48-.59.25-.78.69-.37.89-8.26 2.14-17.4 2.13-26.04 1.8-.4-.17-.44-.42-.29-.73-7.51.51-15.01-1.88-22.1-4.22-.39.29.61.63-.21.79 1.08.62 2.23.66 3.33.74 1.1.07 2.16.17 3.13.79l-.37.29c1.49.65.55-.84 2.03.06.56.48-.27.43.02.53 1.67.34 3.38.69 5.07 1.03.85.15 1.69.29 2.53.36.85.04 1.69.02 2.52-.08.32.47 1.23.62 2.2.78.48.08.98.16 1.43.28.45.1.86.24 1.15.47.92-.23 1.8-.05 2.19-.56 2.56.43 5.19.51 7.81.64l3.96-.06c1.32-.04 2.65-.2 3.98-.3 1.33-.11 2.65-.37 3.98-.55 1.32-.25 2.65-.52 3.96-.86l1.97-.54 1.95-.65c.24-.08.15-.05.24-.09l.18-.08.37-.16c.24-.12.49-.24.73-.38.09-.1.1.02.12.11l.06.27.13.54.24 1.11c.77 1.22 1.37 2.67 1.87 4.13.3.73.58 1.47.84 2.24.25.77.5 1.55.84 2.32.31.78.63 1.57.94 2.36.39.77.79 1.54 1.21 2.31.38.79.97 1.48 1.49 2.2.28.35.54.71.84 1.04.32.32.65.63.99.93-.01.07-.06.11-.12.11.5.34.95.8 1.56 1.18.58.39 1.19.81 1.79 1.25.64.39 1.29.78 1.94 1.17.63.42 1.32.68 1.93 1.04.8.16 1.63.15 2.42.17 3.02 1.21 6.38 1.57 9.63 1.32 3.26-.24 6.45-1.05 9.48-2.16 3.04-1.11 5.94-2.54 8.72-4.14.7-.4 1.39-.81 2.07-1.24l.75-.47.51-.33c.67-.45 1.33-.91 1.95-1.39.12-.14.06.07.07.15l-.02.32-.03.64c-.02.43-.06.85-.06 1.27l-.02 1.5c-.03.85.08 1.7.11 2.56.3 4.2 1.03 8.34 2.59 12.25.2.48.37.98.6 1.45l.72 1.41c.44.96 1.09 1.81 1.65 2.71 1.26 1.7 2.66 3.33 4.34 4.64.8.71 1.71 1.25 2.59 1.85.92.51 1.84 1.05 2.81 1.44 1.92.85 3.93 1.45 5.96 1.8 2.03.36 4.08.52 6.12.48l1.53-.07c.26-.01.51-.04.76-.06.2-.02.23-.04.35-.06.4-.08.85-.2 1.39-.34.87-.24 2.01-.57 3.44-1.07-.38.21-.48.29-.87.44l.17-.06c.08-.03-.03.02-.04.02l-.2.09c-.15.05-.26.18-.41.27-.55.45-1.04 1.12-1.43 1.75-.19.34-.39.66-.54 1-.1.23-.3.64-.42.95l-.38 1.01c-.49 1.35-.85 2.71-1.1 4.1l-.15-.05c-.7 5.2-1.32 10.43-1.8 15.7-.24 2.63-.42 5.25-.52 7.85-.05 1.3-.07 2.59-.07 3.88.01.91.05 1.78.13 2.79-.6.01-1.18.01-1.76.02-.32 0-.61.04-.97.07-.41.03-.82.07-1.22.1-3.42-.07-7.03.26-10.48 1.43-1.74.54-3.41 1.35-5.01 2.27a25.42 25.42 0 0 0-4.41 3.42c-2.68 2.62-4.71 5.85-6.14 9.27-.17.43-.36.86-.51 1.29-.15.43-.29.79-.41 1.2a34.886 34.886 0 0 0-1.21 5.05c-.07.44-.13.89-.19 1.35l-.07.69-.01.17c0 .02 0 .08-.01.07l-.02-.07-.09-.28-.27-.81-.06-.73-.29-.8-.4-.82-.41-.86-.52-.83c-.18-.28-.34-.57-.53-.85l-.63-.8c-.37-.54-.93-1.05-1.45-1.58l-.39-.39-.43-.35-.87-.69c-.59-.45-1.24-.8-1.86-1.21-.66-.32-1.32-.68-2-.96-.7-.24-1.38-.56-2.09-.75-5.71-1.69-11.83-1.44-17.58-.07-3.09.43-6.14 1.27-9.11 2.37a64.79 64.79 0 0 0-4.41 1.81c-.68.31-1.19.57-1.85.89-.63.31-1.28.65-1.97 1.01-.65-2.08-1.05-5.44-1.72-8.33-.54-2.98-1.18-5.92-1.67-8.87-.2-3.84-2.01-7.95-4.24-11.63-2.26-3.72-4.96-6.78-7.01-9.69-1.91-2.38-4.52-4.3-7.51-5.32-2.99-1.04-6.25-1.19-9.31-.65-3.08.53-5.98 1.65-8.66 3.09-.65.35-1.37.78-1.93 1.12-.52.35-1.07.71-1.64 1.13-1.15.82-2.4 1.79-3.77 2.96l-.41.35-.2.18-.05.04v-.04l.01-.09.05-.73.11-1.6c.11-1.24.21-2.49.32-3.74.12-.5.22-.98.32-1.47l.26-1.28.45-2.46c.3-1.64.5-3.3.69-4.95.19-1.65.36-3.31.46-4.96.1-1.66.26-3.31.3-4.96.32-6.61.4-13.09.89-19.58-.72-3.02-.74-6.21-.86-9.56-.11-3.33-.45-6.85-1.83-10.07l-.28.37c.09-.69-.16-1.31-.48-1.9-.31-.59-.77-1.11-1.21-1.59-.84-1-1.66-1.79-1.31-2.92l.21.18c.01-.79-.85-1.18-1.67-1.43-.83-.25-1.55-.43-1.41-1.05l-.47.13c-1.1-1.05.28-.48-.43-1.46-.37-.27-.67.43-1.17-.36.54-.73-.26-1.32-1.07-1.81-.82-.49-1.64-.89-1.23-1.81.41.21.19-.13.1-.45-.09-.31-.02-.66 1.05-.29-.21-.25-1.02-.73-1.85-.94-.41-.11-.82-.15-1.14-.11-.32.04-.59.17-.53.4-.19.43-.58.79-.73 1.17-.08.19-.1.38-.01.59.04.1.12.21.22.32.05.05.14.12.14.17.05.06.11.12.17.18.15-.19.31-.37.47-.55.25.8.24.44.22.97.84.4 1.17.93 1.4 1.41.22.51.34.99.71 1.54 0-.02 0-.04.04-.06 1.2-.08 1.82 1.18 2.19 1.79l-.09.46c-.15.42.48.54.96.69.49.14.86.22.15.39 1.27 1.42 2.39 3.23 3.33 5.22.95 1.98 1.63 4.18 2.26 6.36.64.5.78 3.42 1.49 2.23-.42.69-.56 1.88-.54 3.05-.01 1.17.08 2.34.19 2.96-.11-.03-.23-.07-.22-.27-.52 1.3-.17 1.98.21 2.66.35.68.72 1.35-.11 2.57.63.14.59 1.2.59 2.37 0 1.17-.05 2.47.71 3.12-.27.29-.52.39-.74.29.04 4.2-.57 8.82-.91 12.37.89 3.13-1.14 7.3.03 10.09-.6 2.14-1.67 5.54-1.59 8.65l-.14-.32c-.06.43-.11.87-.17 1.32-.04.31-.08.62-.13.93-.07.43-.13.85-.2 1.28-.27 1.69-.53 3.38-.74 4.92-.21 1.55-.36 2.95-.42 4.06-.03.56-.03 1.04-.01 1.43.02.18.01.41.08.47.1-.01.2.01.32-.04-.12.24-.24.51-.35.78-.19.91.67.52 1.76-.16.54-.34 1.18-.79 1.79-1.2.61-.41 1.24-.84 1.89-1.23.56-.5 1.15-.97 1.78-1.48.31-.25.64-.51.96-.75.32-.21.65-.43.99-.65.34-.22.68-.44 1.03-.66.18-.11.37-.23.56-.35l.3-.18 1.12-.65c1.56-.85 3.3-1.6 4.78-2.35.33.26.95.03 1.55-.16.6-.15 1.18-.24 1.33.21 2.08-.82 4.46-1.22 6.86-.93 2.4.27 4.78 1.25 6.81 2.79 2.07 1.5 3.65 3.67 4.96 5.89.3.58.6 1.15.9 1.73.31.56.5 1.2.75 1.79.23.6.47 1.19.67 1.79.17.62.34 1.23.51 1.84l-.02-.11c.49.49 1.19.96 1.85 1.47.65.52 1.33 1.05 1.88 1.59-.03.16-.19.19-.28-.08.85 1.73.36 3.74 1.05 5.5-.16.03-.16.03-.39-.23.22.4.35.83.43 1.28.06.46.08.94.1 1.43.06.97.16 1.96.75 2.91l-.22.16c.22.41.41.83.6 1.25-.32.03-.8.06-.82-.66.28 1.93.61 3.85.93 5.8.19 1.42.37 2.84.56 4.27.24 1.76.46 3.61.74 5.31l4.02-1.89c.66-.32 1.31-.59 1.96-.87l1.69-.71c1.44-.6 2.9-1.18 4.38-1.72 2.95-1.09 5.97-2.02 9.03-2.73 3.06-.71 6.19-1.2 9.3-1.23 3.09-.03 6.21.34 8.95 1.5-.21.01-.42.04-.64.08.98.19 1.99.41 2.93.8-.1.13-.26.13-.42.12.78.56 1.47 1.18 2.21 1.75.33.33.68.64 1.04.95.05.04.09.07.14.13l.18.25.36.5.72.97.36.47c.06.09.12.14.18.25l.16.37.62 1.44c.41.96.81 1.77 1.2 2.87.38 1.03.76 2.06 1.13 3.08.33.96.58 1.8.88 2.8.03.37 0 .65 0 1.05 0 .41.04.94.27 1.97.11.15.22.33.32.53.03-.3.06-.6.08-.89.02-.38.04-.73.07-1.07.06-.66.13-1.23.22-1.75.17-1.03.37-1.9.53-2.84.08-.46.16-.95.22-1.47.06-.5.1-1.02.12-1.58.03-1.15-.02-2.28-.22-3.55.1-.1.42.27.44 1.12l.09-.85c.03-.27.09-.48.13-.73l.26-1.4c.22-.85.42-1.7.68-2.49l.32-.96c.07-.24.17-.47.26-.71.17-.48.36-.95.57-1.41.81-1.86 1.84-3.62 3.08-5.21 2.47-3.2 5.88-5.57 9.62-6.87 2.07-1.46 4.7-2.23 7.41-2.49 1.36-.11 2.73-.18 4.11-.11l1.18.04c.46.02.91.07 1.36.11.9.08 1.8.15 2.66.21-.04-1.28-.09-2.55-.16-3.75l-.06-.88-.07-.74c-.05-.48-.11-.95-.17-1.43l.32.05c-.41-4.78-.07-9.72.66-14.63.75-4.9 1.8-9.81 3.31-14.44.13-.33.26-.65.38-.96.14-.33.28-.65.41-.95.08-.17.15-.34.23-.51.1-.17.2-.33.29-.49.18-.32.36-.63.54-.93.4-1.3.91-2.31 1.9-3.16.15-.12.31-.24.48-.36.18-.11.39-.19.6-.29l.16-.07.08-.04.04-.02s-.02.01-.04.01c-.12.03-.24.05-.36.08-.25.05-.5.09-.76.14l.06-.08c-1.03.15-2.26.32-3.45.4-6.69 1.02-12.19-1.33-18.07-2.62.22-.08.46-.19.68-.29-.68.17-1.6-.42-2.35-.87-.73-.49-1.35-.81-1.6-.09-.28-.35-.5-.77-.74-1.14-2.51-.81-4.04-2.79-5.02-4.98-1.01-2.23-1.74-4.57-3.18-7.29l.46.28c-.41-.71-.68-1.54-.93-2.33a8.99 8.99 0 0 1-.28-1.14c-.04-.37-.05-.71-.02-1.02.08.17.17.07.32.43.21-2.31-.01-4.59-.25-6.95-.1-1.32-.27-2.85-.34-4.09l-.1-1.83-.04-.88-.01-.44v-.22c-.03-.02-.11.07-.16.09-.51.44-1.01.83-1.49 1.17.31-.51.66-1.06 1.05-1.64-1.63 1.75-3.17 2.89-5.05 4.04-1.72 1.05-3.44 1.93-4.86 2.88l.04-.37c-.42.4-.87.77-1.31 1.15l-.31-.53c-1.95.93-3.82 1.9-5.75 2.7-.95.44-1.94.77-2.93 1.14-1.03.28-2.03.63-3.08.79z"/><path d="M373.38 71.31c0 .02 0 .04-.01.07.07.05.05 0 .01-.07zM314.85 71.64c-.1-.14-.19-.26-.27-.38-.06.12.18.26.27.38zM466.61 188.8l-.2.06.51.18zM467.7 190c.1-.03.25-.01.35-.04-.48-.26-.96-.51-1.44-.74-.86.27 1.66.59 1.09.78zM467.54 190.2c-.36.25.33.41.56.49-.53-.13.19-.5-.56-.49zM455.4 209.89c.02-.02.04-.05.05-.08-.05 0-.06.04-.05.08z"/><path d="m450.02 214.42.06.56c.53-.65 1.19-.8 1.89-.93.68-.17 1.41-.29 1.98-.72l-.01.21c3.4-1.15 5.71-3.79 7.8-6.4 0 .08.1.21.11.29-.01-.25-.13-.62.04-.71.12.06.14.22.14.3 1.16.12.98-1.94 1.81-1.79.05-.22-.2-.53-.49-.63 1.44-2.13 2.67-4.66 2.9-7.26.16-.07.4 0 .69.14-.57-2.52.36-4.42.85-6.62-.39-.12-.42.18-.82-.06-.51.62.78 1.36 0 1.89l-.36-.14c-.31.4.92.25.38.63-.34.12-.47-.14-.51-.06.02.49-.2.94-.25 1.41-.08.47-.02.98.25 1.55-.86-.05-.39.98-1.24 1.03.22.35.06.55.53.85-.48.72-.85 1.49-1.25 2.25-.22.37-.43.74-.63 1.13-.2.39-.4.77-.65 1.13-.47.73-.9 1.51-1.48 2.18l-.84 1.03c-.31.31-.64.61-.97.9-.06 1.18-.9 1.69-1.8 2.1-.44.22-.93.36-1.4.55-.46.19-.89.43-1.25.81a.336.336 0 0 1-.08-.14c-.39.62-1.19 1.21-1.97 1.37l-.38.85c-2.47.29-4.79.6-7.15.83l-1.78.1c-.59.01-1.19-.05-1.78-.07-.3-.02-.59-.03-.89-.06l-.88-.17c-.58-.13-1.17-.23-1.72-.44-2.59-.74-4.73-2.1-6.77-3.37-1.05-.62-2.01-1.33-3.11-1.93-.51-.35-1.05-.67-1.64-.98-.6-.29-1.14-.67-1.8-.97.12-.1.16-.18.3-.13-.66-.44-1.04-1.08-1.41-1.69-.19-.31-.38-.6-.59-.89-.18-.3-.39-.59-.64-.86l.14-.08c-.37-.29-.72-.61-1.02-.97-.27-.37-.52-.76-.76-1.17-.5-.79-.76-1.71-1.08-2.58-.32-.88-.46-1.8-.8-2.67-.26-.88-.53-1.75-1.03-2.6-.25-4.35.24-9.33 1.99-13.72l.28.14c.13-.45.28-.89.47-1.32.22-.4.47-.8.73-1.17.49-.78 1.17-1.43 1.82-2.07 1.31-1.28 2.77-2.31 3.96-3.7.85-.44 1.57-1.02 2.29-1.66.37-.3.74-.62 1.1-.95l.55-.51.59-.46c.79-.62 1.6-1.25 2.52-1.64.45-.21.91-.41 1.39-.54.49-.1.98-.16 1.48-.17.34.11.66.15.98.13.32.01.65-.03.97-.12.64-.15 1.28-.53 1.96-.77.67-.25 1.36-.5 2.02-.6.67-.07 1.31.09 1.85.5 1.14.61 2.17 1.22 3.24 1.53.53.19 1.04.39 1.57.52s1.07.23 1.61.38c.54.13 1.09.22 1.66.31.56.11 1.11.24 1.7.35l.88.16.87.22c.58.15 1.19.3 1.8.47.38.42.78.79 1.21 1.14.21.17.43.34.65.5l.62.53c.42.35.86.68 1.31 1 .42.35.83.72 1.24 1.09.86.71 1.53 1.59 2.16 2.48.31.45.51.97.71 1.48.17.52.36 1.04.38 1.62.91.65 1.15 1.76 1.05 2.93-.03.58-.08 1.16-.06 1.71-.03.56.01 1.1.22 1.59l.36-.17c-.49.52.05.82.44 1.15.39.33.72.66-.11 1.03l-.09-.07c-.83.51 2.23.67 1.21 1.07l.45.02c.19.5-.48.11-.63.52.06.14.8-.01.57.32-1.79.19.45 1.25-1.57 1.35-.01-.26-.76.43-1.22-.14-.2.17-.06.94.8.87.91.07 1.71.41 2.41-.12l-.67-.1c.66-.18.33-.14.82-.21.05-.7 1.01-.84 1.39-1.39-.02.01-.04.01-.07.01-.81-.31-.36-.83-.27-1.13l.35-.15c.74-.27-1.62-.65-.27-.59-.29-.72-.45-1.5-.67-2.3-.24-.79-.45-1.6-.67-2.4-.56-.07-.39-1.21-1.18-.55.9-.73.75-2.04.51-2.44.1-.03.22-.05.21.03.91-1.43-1.66-.4-.46-1.93-.59.22-.65-.17-.8-.58-.16-.4-.37-.84-1.12-.66.18-.23.38-.39.59-.47-.38-.67-.7-1.43-1.1-2.12-.38-.69-.71-1.41-1.14-1.92-.79-.07-1.15-.64-1.54-1.18-.37-.55-.88-.97-1.73-.75-.18-.38-.41-.9-.74-1.37-.36-.44-.85-.8-1.47-.89l.2-.08c-1.02-.72-2.46-1.42-3.62-1.04.4-1.46-.24-1.43-.52-2.08-.53.11-1.15-.05-1.81-.25-.68-.14-1.41-.3-2.1-.22.03-.7-1.05-.08-.84-1-1 .23-1.96.27-2.93.26-.97.04-1.93-.1-2.89-.23-.97-.09-1.95-.35-2.93-.54-.99-.17-1.99-.47-2.98-.69l.05-.08c-.44.6-.83 1.84-1.17 2.59-.06-.08-.08-.23.02-.24-.31.14-.65 0-1.01-.14-.35-.11-.71-.22-1.01-.05-.03-.16-.03-.16.04-.33-.5.57-1.48-.43-2 .5l-.12-.23-.34.5c-.09-.31-.23-.77.05-.76-2.89.75-5.48 2.51-7.68 4.51-.53.53-1.11.99-1.59 1.57l-1.49 1.64c-.45.58-.91 1.15-1.39 1.71-.48.55-.88 1.17-1.35 1.73l-.12-.35-.23 1.22c-.13-.1-.17-.18-.19-.27-1.23.95-1.27 2.69-1.94 3.9-.14-.07-.32-.4-.57-.29.17.66-.29.91-.56 1.19-.28.27-.43.54.33 1.11-.1.02-.49-.09-.59-.25-.28 1.47-.47 2.94-.8 4.37-.2 1.46-.54 2.9-.7 4.36.7 1.25.88 2.47.92 3.74.05.63.17 1.26.32 1.88.08.31.18.61.32.9.15.29.35.56.58.81l-.32.06c.9 1.4 1.41 2.88 1.92 4.42.3.75.53 1.55.89 2.29.38.73.75 1.47 1.26 2.1.71 1.16 1.52 1.69 2.47 2.64l-.28.3c1.3.36 1.94 1.33 2.63 2.41.36.52.77 1 1.25 1.38.24.19.51.35.8.46.31.09.64.13 1.01.1l-.44.38c.77-.53 1.1 1.02 1.71-.33l.14.6c1.17-.49 1.68-.01 2.24.61.56.6 1.23 1.22 2.34.97l-.23.29c.57-.05 1.21-.15 1.5.26-.07.03-.07.14-.21.2.62.86 1.5 1.1 2.42 1 .92-.08 1.83-.25 2.69-.22l-.24.64c.45-.36 1.04-.34 1.67-.27.63.09 1.3.09 1.84-.1l-.05.31.53-.46.06.61c.74.01 1.42-.24 2.1-.48.61-.18 1.27-.42 1.94-.66z"/><path d="M462.02 207.02H462c0 .06.01.04.02 0zM472.68 186.78c-.03.07-.07.14-.11.2.11-.03.08-.14.11-.2zM512.17 217.19l-.19.06.51.18zM513.26 218.39c.1-.03.25-.01.35-.04-.48-.26-.96-.51-1.44-.74-.86.27 1.67.59 1.09.78zM513.1 218.59c-.36.25.33.41.56.49-.53-.13.2-.5-.56-.49zM500.96 238.28c.02-.02.04-.05.05-.08-.04 0-.05.04-.05.08z"/><path d="m495.59 242.81.06.56c.53-.65 1.19-.8 1.89-.93.68-.17 1.41-.29 1.98-.72l-.01.21c3.4-1.15 5.71-3.79 7.8-6.4 0 .08.1.21.11.29-.01-.25-.13-.62.04-.71.12.06.14.22.14.3 1.16.12.98-1.94 1.81-1.79.05-.22-.2-.53-.49-.63 1.44-2.13 2.67-4.66 2.9-7.26.16-.07.4 0 .69.14-.57-2.52.36-4.42.85-6.62-.39-.12-.42.18-.82-.06-.51.62.78 1.36 0 1.89l-.36-.14c-.31.4.92.25.38.63-.34.12-.47-.14-.51-.06.02.49-.2.94-.25 1.41-.08.47-.02.98.25 1.55-.86-.05-.39.98-1.24 1.03.22.35.06.55.53.85-.48.72-.85 1.49-1.25 2.25-.22.37-.43.74-.63 1.13-.2.39-.4.77-.65 1.13-.47.73-.9 1.51-1.48 2.18l-.84 1.03c-.31.31-.64.61-.97.9-.06 1.18-.9 1.69-1.8 2.1-.44.22-.93.36-1.4.55-.46.19-.89.43-1.25.81a.336.336 0 0 1-.08-.14c-.39.62-1.19 1.21-1.97 1.37l-.38.85c-2.47.29-4.79.6-7.15.83l-1.78.1c-.59.01-1.19-.05-1.78-.07-.3-.02-.59-.03-.89-.06l-.88-.17c-.58-.13-1.17-.23-1.72-.44-2.59-.74-4.73-2.1-6.77-3.37-1.05-.62-2.01-1.33-3.11-1.93-.51-.35-1.05-.67-1.64-.98-.6-.29-1.14-.67-1.8-.97.12-.1.16-.18.3-.13-.66-.44-1.04-1.08-1.41-1.69-.19-.31-.38-.6-.59-.89-.18-.3-.39-.59-.64-.86l.14-.08c-.37-.29-.72-.61-1.02-.97-.27-.37-.52-.76-.76-1.17-.5-.79-.76-1.71-1.08-2.58-.32-.88-.46-1.8-.8-2.67-.26-.88-.53-1.75-1.03-2.6-.25-4.35.24-9.33 1.99-13.72l.28.14c.13-.45.28-.89.47-1.32.22-.4.47-.8.73-1.17.49-.78 1.17-1.43 1.82-2.07 1.31-1.29 2.77-2.31 3.96-3.7.85-.44 1.57-1.02 2.29-1.66.37-.3.74-.62 1.1-.95l.55-.51.59-.46c.79-.62 1.6-1.25 2.52-1.64.45-.21.91-.41 1.39-.54.49-.1.98-.16 1.48-.17.34.11.66.15.98.13.32.01.65-.03.97-.12.64-.15 1.28-.53 1.96-.77.67-.25 1.36-.5 2.02-.6.67-.07 1.31.09 1.85.5 1.14.61 2.17 1.22 3.24 1.53.53.19 1.04.39 1.57.52s1.07.23 1.61.38c.54.13 1.09.22 1.66.31.56.11 1.11.24 1.7.35l.88.16.87.22c.58.15 1.19.3 1.8.47.38.42.78.79 1.21 1.14.21.17.43.34.65.5l.62.53c.42.35.86.68 1.31 1 .42.35.83.72 1.24 1.09.86.71 1.53 1.59 2.16 2.48.31.45.51.97.71 1.48.17.52.36 1.04.38 1.62.91.65 1.15 1.76 1.05 2.93-.03.58-.08 1.16-.06 1.71-.03.56.01 1.1.22 1.59l.36-.17c-.49.52.05.82.44 1.15.39.33.72.66-.11 1.03l-.09-.07c-.83.51 2.23.67 1.21 1.07l.45.02c.19.5-.48.11-.63.52.06.14.8-.01.57.32-1.79.19.45 1.25-1.57 1.35-.01-.26-.76.43-1.22-.14-.2.17-.06.94.8.87.91.07 1.71.41 2.41-.12l-.67-.1c.66-.18.33-.14.82-.21.05-.7 1.01-.84 1.39-1.39-.02.01-.04.01-.07.01-.81-.31-.36-.83-.27-1.13l.35-.15c.74-.27-1.62-.65-.27-.59-.29-.72-.45-1.5-.67-2.3-.24-.79-.45-1.6-.67-2.4-.56-.07-.39-1.21-1.18-.55.9-.73.75-2.04.51-2.44.1-.03.22-.05.21.03.91-1.43-1.66-.4-.46-1.93-.59.22-.65-.17-.8-.58-.16-.4-.37-.84-1.12-.66.18-.23.38-.39.59-.47-.38-.67-.7-1.43-1.1-2.12-.38-.69-.71-1.41-1.14-1.92-.79-.07-1.15-.64-1.54-1.18-.37-.55-.88-.97-1.73-.75-.18-.38-.41-.9-.74-1.37-.36-.44-.85-.8-1.47-.89l.2-.08c-1.02-.72-2.46-1.42-3.62-1.04.4-1.46-.24-1.43-.52-2.08-.53.11-1.15-.05-1.81-.25-.68-.14-1.41-.3-2.1-.22.03-.7-1.05-.08-.84-1-1 .23-1.96.27-2.93.26-.97.04-1.93-.1-2.89-.23-.97-.09-1.95-.35-2.93-.54-.99-.17-1.99-.47-2.98-.69l.05-.08c-.44.6-.83 1.84-1.17 2.59-.06-.08-.08-.23.02-.24-.31.14-.65 0-1.01-.14-.35-.11-.71-.22-1.01-.05-.03-.16-.03-.16.04-.33-.5.57-1.48-.43-2 .5l-.12-.23-.34.5c-.09-.31-.23-.77.05-.76-2.89.75-5.48 2.51-7.68 4.51-.53.53-1.11.99-1.59 1.57l-1.49 1.64c-.45.58-.91 1.15-1.39 1.71-.48.55-.88 1.17-1.35 1.73l-.12-.35-.23 1.22c-.13-.1-.17-.18-.19-.27-1.23.95-1.27 2.69-1.94 3.9-.14-.07-.32-.4-.57-.29.17.66-.29.91-.56 1.19-.28.27-.43.54.33 1.11-.1.02-.49-.09-.59-.25-.28 1.47-.47 2.94-.8 4.37-.2 1.46-.54 2.9-.7 4.36.7 1.25.88 2.47.92 3.74.05.63.17 1.26.32 1.88.08.31.18.61.32.9.15.29.35.56.58.81l-.32.06c.9 1.4 1.41 2.88 1.92 4.42.3.75.53 1.55.89 2.29.38.73.75 1.47 1.26 2.1.71 1.16 1.52 1.69 2.47 2.64l-.28.3c1.3.36 1.94 1.33 2.63 2.41.36.52.77 1 1.25 1.38.24.19.51.35.8.46.31.09.64.13 1.01.1l-.44.38c.77-.53 1.1 1.02 1.71-.33l.14.6c1.17-.49 1.68-.01 2.24.61.56.6 1.23 1.22 2.34.97l-.23.29c.57-.05 1.21-.15 1.5.26-.07.03-.07.14-.21.2.62.86 1.5 1.1 2.42 1 .92-.08 1.83-.25 2.69-.22l-.24.64c.45-.36 1.04-.34 1.67-.27.63.09 1.3.09 1.84-.1l-.05.31.53-.46.06.61c.74.01 1.42-.24 2.1-.48.61-.18 1.27-.42 1.94-.66z"/><path d="M507.59 235.41h-.02c0 .06.01.04.02 0zM518.24 215.17c-.03.07-.07.14-.11.2.12-.03.09-.14.11-.2zM458.92 240.76l-.19.07.51.17zM460.01 241.96c.1-.03.25-.01.35-.04-.48-.26-.96-.51-1.44-.74-.86.27 1.66.59 1.09.78zM459.85 242.16c-.36.25.33.41.56.49-.53-.13.19-.5-.56-.49zM447.71 261.85c.02-.02.04-.05.05-.08-.05 0-.06.04-.05.08z"/><path d="m442.33 266.39.06.56c.53-.65 1.19-.8 1.89-.93.68-.17 1.41-.29 1.98-.72l-.01.21c3.4-1.15 5.71-3.79 7.8-6.4 0 .08.1.21.11.29-.01-.25-.13-.62.04-.71.12.06.14.22.14.3 1.16.12.98-1.94 1.81-1.79.05-.22-.2-.53-.49-.63 1.44-2.13 2.67-4.66 2.9-7.26.16-.07.4 0 .69.14-.57-2.52.36-4.42.85-6.62-.39-.12-.42.18-.82-.06-.51.62.78 1.36 0 1.89l-.36-.14c-.31.4.92.25.38.63-.34.12-.47-.14-.51-.06.02.49-.2.94-.25 1.41-.08.47-.02.98.25 1.55-.86-.05-.39.98-1.24 1.03.22.35.06.55.53.85-.48.72-.85 1.49-1.25 2.25-.22.37-.43.74-.63 1.13-.2.39-.4.77-.65 1.13-.47.73-.9 1.51-1.48 2.18l-.84 1.03c-.31.31-.64.61-.97.9-.06 1.18-.9 1.69-1.8 2.1-.44.22-.93.36-1.4.55-.46.19-.89.43-1.25.81a.336.336 0 0 1-.08-.14c-.39.62-1.19 1.21-1.97 1.37l-.38.85c-2.47.29-4.79.6-7.15.83l-1.78.1c-.59.01-1.19-.05-1.78-.07-.3-.02-.59-.03-.89-.06l-.88-.17c-.58-.13-1.17-.23-1.72-.44-2.59-.74-4.73-2.1-6.77-3.37-1.05-.62-2.01-1.33-3.11-1.93-.51-.35-1.05-.67-1.64-.98-.6-.29-1.14-.67-1.8-.97.12-.1.16-.18.3-.13-.66-.44-1.04-1.08-1.41-1.69-.19-.31-.38-.6-.59-.89-.18-.3-.39-.59-.64-.86l.14-.08c-.37-.29-.72-.61-1.02-.97-.27-.37-.52-.76-.76-1.17-.5-.79-.76-1.71-1.08-2.58-.32-.88-.46-1.8-.8-2.67-.26-.88-.53-1.75-1.03-2.6-.25-4.35.24-9.33 1.99-13.72l.28.14c.13-.45.28-.89.47-1.32.22-.4.47-.8.73-1.17.49-.78 1.17-1.43 1.82-2.07 1.31-1.29 2.77-2.31 3.96-3.7.85-.44 1.57-1.02 2.29-1.66.37-.3.74-.62 1.1-.95l.55-.51.59-.46c.79-.62 1.6-1.25 2.52-1.64.45-.21.91-.41 1.39-.54.49-.1.98-.16 1.48-.17.34.11.66.15.98.13.32.01.65-.03.97-.12.64-.15 1.28-.53 1.96-.77.67-.25 1.36-.5 2.02-.6.67-.07 1.31.09 1.85.5 1.14.61 2.17 1.22 3.24 1.53.53.19 1.04.39 1.57.52s1.07.23 1.61.38c.54.13 1.09.22 1.66.31.56.11 1.11.24 1.7.35l.88.16.87.22c.58.15 1.19.3 1.8.47.38.42.78.79 1.21 1.14.21.17.43.34.65.5l.62.53c.42.35.86.68 1.31 1 .42.35.83.72 1.24 1.09.86.71 1.53 1.59 2.16 2.48.31.45.51.97.71 1.48.17.52.36 1.04.38 1.62.91.65 1.15 1.76 1.05 2.93-.03.58-.08 1.16-.06 1.71-.03.57.01 1.1.22 1.59l.36-.17c-.49.52.05.82.44 1.15.39.33.72.66-.11 1.03l-.09-.07c-.83.51 2.23.67 1.21 1.07l.45.02c.19.5-.48.11-.63.52.06.14.8-.01.57.32-1.79.19.45 1.25-1.57 1.35-.01-.26-.76.43-1.22-.14-.2.17-.06.94.8.87.91.07 1.71.41 2.41-.12l-.67-.1c.66-.18.33-.14.82-.21.05-.7 1.01-.84 1.39-1.39-.02.01-.04.01-.07.01-.81-.31-.36-.83-.27-1.13l.35-.15c.74-.27-1.62-.65-.27-.59-.29-.72-.45-1.5-.67-2.3-.24-.79-.45-1.6-.67-2.4-.56-.07-.39-1.21-1.18-.55.9-.73.75-2.04.51-2.44.1-.03.22-.05.21.03.91-1.43-1.66-.4-.46-1.93-.59.22-.65-.17-.8-.58-.16-.4-.37-.84-1.12-.66.18-.23.38-.39.59-.47-.38-.67-.7-1.43-1.1-2.12-.38-.69-.71-1.41-1.14-1.92-.79-.07-1.15-.64-1.54-1.18-.37-.55-.88-.97-1.73-.75-.18-.38-.41-.9-.74-1.37-.36-.44-.85-.8-1.47-.89l.2-.08c-1.02-.72-2.46-1.42-3.62-1.04.4-1.46-.24-1.43-.52-2.08-.53.11-1.15-.05-1.81-.25-.68-.14-1.41-.3-2.1-.22.03-.7-1.05-.08-.84-1-1 .23-1.96.27-2.93.26-.97.04-1.93-.1-2.89-.23-.97-.09-1.95-.35-2.93-.54-.99-.17-1.99-.47-2.98-.69l.05-.08c-.44.6-.83 1.84-1.17 2.59-.06-.08-.08-.23.02-.24-.31.14-.65 0-1.01-.14-.35-.11-.71-.22-1.01-.05-.03-.16-.03-.16.04-.33-.5.57-1.48-.43-2 .5l-.12-.23-.34.5c-.09-.31-.23-.77.05-.76-2.89.75-5.48 2.51-7.68 4.51-.53.53-1.11.99-1.59 1.57l-1.49 1.64c-.45.58-.91 1.15-1.39 1.71-.48.55-.88 1.17-1.35 1.73l-.12-.35-.23 1.22c-.13-.1-.17-.18-.19-.27-1.23.95-1.27 2.69-1.94 3.9-.14-.07-.32-.4-.57-.29.17.66-.29.91-.56 1.19-.28.27-.43.54.33 1.11-.1.02-.49-.09-.59-.25-.28 1.47-.47 2.94-.8 4.37-.2 1.46-.54 2.9-.7 4.36.7 1.25.88 2.47.92 3.74.05.63.17 1.26.32 1.88.08.31.18.61.32.9.15.29.35.56.58.81l-.32.06c.9 1.4 1.41 2.88 1.92 4.42.3.75.53 1.55.89 2.29.38.73.75 1.47 1.26 2.1.71 1.16 1.52 1.69 2.47 2.64l-.28.3c1.3.36 1.94 1.33 2.63 2.41.36.52.77 1 1.25 1.38.24.19.51.35.8.46.31.09.64.13 1.01.1l-.44.38c.77-.53 1.1 1.02 1.71-.33l.14.6c1.17-.49 1.68-.01 2.24.61.56.6 1.23 1.22 2.34.97l-.23.29c.57-.05 1.21-.15 1.5.26-.07.03-.07.14-.21.2.62.86 1.5 1.1 2.42 1 .92-.08 1.83-.25 2.69-.22l-.24.64c.45-.36 1.04-.34 1.67-.27.63.09 1.3.09 1.84-.1l-.05.31.53-.46.06.61c.74.01 1.42-.24 2.1-.48.61-.19 1.27-.43 1.94-.66z"/><path d="M454.33 258.98h-.02c0 .06.01.04.02 0zM464.99 238.74c-.03.07-.07.14-.11.2.12-.02.08-.14.11-.2z"/><g><path d="m624.26 86.56-.24.18.35.75zM624.4 90.83c.12-.1.26-.01.38-.1l-.87-2.68c-1.08.86 1.2 2.23.49 2.78zM624.11 91.49c-.51.85.1 1.37.3 1.62-.48-.42.47-1.66-.3-1.62zM599.23 153.41a.976.976 0 0 0-.07-.16c-.01.04.02.1.07.16z"/><path d="m582.49 156.2-.07.59c1.68-.98 3.75-1.21 5.8-1.28 1.03 0 2.07.08 3.09.08 1.03.09 2.05.14 3.07.1l-.29.18c.66.05 1.31.19 1.97.27l1 .14c.41.05.8.11 1.2.18.78.15 1.55.29 2.31.44.38.07.75.14 1.12.2l.55.1c.09.01.19.04.27.04l.03-.18c-.29-1.16-.55-2.34-.73-3.45-.1-.56-.15-1.1-.22-1.63-.04-.5-.09-.92-.11-1.39-.1-1.83-.05-3.66.19-5.49.48-3.65 1.75-7.28 3.96-10.49-.05.17.05.31.01.48.12-.53.2-1.19.6-1.59.19-.04.1.29.03.46.54-.28 1-.76 1.51-1.27.49-.53.98-1.14 1.5-1.69.49-.58 1-1.11 1.49-1.51.48-.41.92-.7 1.31-.74.46-.42.48-.89.02-.94 2.47-1.76 5.23-3.19 8.12-4.38l2.19-.83c.73-.28 1.48-.49 2.23-.74l.69-.24.61-.19.57-.19.27-.09c.08-.04.24-.03.1-.16-.4-.57-.73-1.12-1.01-1.61-.03-.05-.08-.15-.09-.14l-.18-.41-.36-.82c-.23-.55-.43-1.11-.66-1.66 0-.44.23-.57.56-.55-1.66-3.34-2.37-7.15-2.43-10.93-.1-3.8.5-7.56 1.26-11.19-.33-.35-.55.68-.81-.12-.48 1.14-.38 2.29-.29 3.38.08 1.1.13 2.14-.27 3.21l-.36-.31c-.34 1.59.93.38.35 2.01-.35.64-.47-.18-.52.12.04 3.4-.1 7.08 1.36 10.14-.69.94.67 3.62.34 5.07.55.78.79 1.67 1.42 1.81l.28.9c.07.2.15.39.25.57 0 .02.04.05.02.05l-.07.01-.14.03-.28.06c-.18.04-.37.07-.54.12l-1.37.39c-.63.17-1.25.38-1.87.61-2.5.82-4.93 1.97-7.27 3.28-4.67 2.65-8.84 6.52-11.61 11.31-.76 2.94-1.92 5.8-2.67 9.03-.38 1.6-.66 3.28-.74 4.99-.02.43-.03.85-.02 1.28l.01.46.02.27c.03.37.1.74.25 1.18a.626.626 0 0 1-.18-.15c.08.17.17.36.26.61.13.22-.02.16-.11.19-.1.01-.21.02-.33.02-.24 0-.53-.02-.84-.06-.31-.05-.63-.09-.94-.14-.58-.09-1.16-.19-1.7-.31-.75.1-1.5.28-2.24.46-3.81-.64-7.83-.69-11.78.24-1.98.42-3.9 1.21-5.73 2.16a23.157 23.157 0 0 0-4.96 3.74c-1.44 1.5-2.67 3.18-3.69 4.97-1.02 1.79-1.78 3.69-2.41 5.61-.62 1.93-1.07 3.9-1.39 5.88-.15.99-.28 1.99-.38 2.98l-.15 1.43c-.02.36-.03.71-.03 1.01-.01.03.03.15-.03.1l-.16-.09-.31-.18-.6-.34-.56-.32-.27-.16c-.11-.06-.08-.06-.39-.2-1.84-.88-3.64-1.81-5.5-2.58-3.66-1.66-7.43-3-11.28-4.08-3.85-1.07-7.86-1.75-11.98-1.81-4.1-.06-8.37.6-12.31 2.32-.02-.15-.19-.2.24-.39-2.45.91-4.75 1.93-6.84 3.28-2.07 1.37-3.92 3.09-5.26 5.2l-.12-.1c-.39.69-.76 1.38-1.09 2.1-.33.69-.68 1.55-.8 1.95-.06.21-.13.43-.18.66 0 .08-.05.09-.11.1l-.16.04-.33.08-.51.12-.75.16-1.62.33-3.25.63c-2.14.39-4.28.78-6.41 1.16-1.26-.01-2.51-.01-3.75-.02-1.28 0-2.55.02-3.82.05-2.52.07-5.01.22-7.43.51-1.74-.03-3.5-.06-5.53-.09-.52-2.72-1.05-5.52-1.58-8.36-.59-2.99-1.19-6.03-1.8-9.08-.3-1.48-.61-2.96-.91-4.44l-.21-1.02c.21-.22.56-.37.84-.56l.89-.55c.3-.19.64-.44.95-.66 2.58-1.8 4.91-3.92 6.92-6.24l.21.24c3.64-4.45 6.7-9.2 9.03-14.38 2.31-5.16 3.88-10.73 4.19-16.5.06-.36.11-.72.15-1.08l.09-.78c.05-.5.08-1 .08-1.52.39-.05.89-.01 1.32-.03.47.01.83-.08 1.6-.14.68-.05 1.34-.2 2.01-.34l.99-.22.97-.3c2.59-.8 5.02-2.04 7.24-3.52 4.45-2.97 8.04-6.83 11.61-10.58 2.74-2.22 4.71-5.78 6.28-9.39.79-1.81 1.49-3.64 2.2-5.37.18-.44.36-.87.54-1.3.21-.49.42-.97.63-1.44.42-.94.84-1.82 1.22-2.48.39.26.8.69 1.14 1.02.77.72 1.43 1.34 2.08 1.82.67.53 1.41 1.09 2.18 1.52l1.16.68c.39.22.81.38 1.22.57.41.18.82.37 1.25.54l1.3.41c1.74.55 3.56.77 5.38.84.91-.05 1.83-.01 2.73-.17l1.35-.19 1.32-.31c3.53-.86 6.69-2.67 9.49-4.79 2.78-2.17 5.2-4.72 7.36-7.47a36.48 36.48 0 0 0 3.47-3.65c1.21-1.46 2.31-3.05 3.38-4.77.09-.17.16.07.24.2l.23.44.47.89.96 1.81c.32.61.71 1.21 1.08 1.8l.98 1.52c.69.94 1.41 1.86 2.13 2.78l1.17 1.28c.39.43.76.87 1.2 1.24.84.79 1.65 1.6 2.56 2.27.86.76 1.82 1.37 2.75 2.02 1.92 1.2 3.9 2.35 6.06 3.21 2.97.22 5.92.85 9.17 1.13 3.22.28 6.7.2 9.88-.93l-.34-.3c1.32.21 2.49-.59 3.51-1.34 1.03-.75 1.92-1.4 2.95-.89l-.2.17c1.55.31 1.8-3.11 2.92-2.49l-.02-.42c1.28-.8.38.37 1.51-.01.36-.26-.23-.79.69-1 .52.75 1.29.2 2.05-.32.76-.53 1.5-1.04 2.09-.22-.73.45 1.56-.05.15 1.33.58-.09 2.77-1.67 2.08-2.26-.35-.87-.03-2.08-1.67-1.77l.12.72c-.8-.26-.51-.06-.94-.37-1.72 1-2.45.3-3.86.65.02.01.04.02.04.06-.44 1.17-1.85 1.39-2.57 1.62l-.44-.19c-.73-.48-1.35 2.32-1.38.87-3.44 2-7.77 3.54-12.05 4.36-.25.3-1.09.42-1.71.57-.63.13-1.06.27-.53.71-1.25-.92-4.39-1.06-5.54-1.13.05-.1.1-.22.28-.17-.55-.36-.97-.49-1.35-.52-.38-.01-.71.11-1.05.22-.67.25-1.36.31-2.18-.72-.3.61-1.18.21-2.16-.13-.49-.18-.97-.44-1.45-.54-.48-.11-.96-.1-1.37.08-.11-.37-.08-.63.1-.79-.4-.22-.82-.44-1.23-.66-.41-.23-.78-.53-1.17-.8-.79-.51-1.49-1.18-2.18-1.81-.36-.3-.68-.64-.98-.99-.31-.34-.61-.67-.91-.99-.6-.64-1.08-1.37-1.59-1.96-.67-.31-1.17-.91-1.66-1.53-.24-.32-.47-.65-.7-.99-.22-.34-.4-.72-.6-1.08l-.33-.6c-.21-.36-.42-.72-.63-1.07-.39-.74-.78-1.5-1.15-2.16-.74-1.32-1.48-2.39-2.09-2.79-.15-.38-.32-.79-.49-1.22-.09-.22-.18-.45-.28-.68-.1-.24-.2-.49-.3-.67-1.02 1.31-2.38 3.22-3.77 5.18-.7.92-1.44 1.95-2.12 2.81-.34.48-.68.98-.96 1.49l.04-.33c-2.01 2.52-4.85 5.26-6.02 7.34-1.63-.55-2.54.46-3.91.8-1.37 1.69-5.14 3.42-8.03 4.55-.3-.29-.9-.05-1.48.04-.58.1-1.13.16-1.25-.31-2.45.8-5.35.82-8.19.03-1.42-.39-2.83-.98-4.18-1.71l-1.2-.7c-.56-.34-1.11-.73-1.65-1.11l-3.29-2.36c-.66 1.59-1.33 3.3-2.11 4.89-.19.41-.39.81-.6 1.21l-.39.69c-.27.45-.53.91-.81 1.35-1.1 1.77-2.3 3.45-3.54 4.99l.01-.16c-.19 1.36.02 3.26-.17 4.75-.14.06-.27-.04-.11-.27-.88 1.65-2.67 2.48-3.65 4.01-.12-.11-.12-.11-.05-.43-.74 1.61-2.8 2.19-3.64 4.11l-.26-.1c-.2.39-.43.75-.65 1.13-.2-.25-.5-.63.05-1.02-2.87 2.73-5.99 5.16-9.47 6.88-1.73.88-3.57 1.5-5.45 1.98l-1.43.3c-.48.09-.97.12-1.45.19-1.78.16-3.58.06-5.27.14.05 1.7.11 3.38.05 4.95l-.07 1.58c-.02.48-.06.96-.1 1.44-.16 1.92-.41 3.83-.77 5.73-.72 3.79-1.85 7.52-3.48 11l-.04-.66c-.24 1.02-.54 2.03-.84 3.04-.13-.09-.14-.26-.14-.42-1.15 1.63-2.06 3.39-3.08 5.11-1.03 1.7-2.1 3.4-3.49 4.74-.1-.12.06-.75-.43-.48-.3.68-.75 1.13-1.18 1.51-.43.38-.89.66-1.31.9-.82.51-1.42.96-1.44 2.09-.16.01-.47-.25-.34-.54-.36.32-.72.66-1.1.97l-1.17.9c-.21.16-.35.28-.63.47l-.98.63-1.94 1.22-.06.04c-.01.02.01.05.01.07l.03.15.06.29.12.58.24 1.15.42 2 .63 3.07c.81 4.1 1.51 8.22 2.14 12.32.18.41.36.83.52 1.26l.24.64.11.32c.03.1.07.22.12.38.35 1.2.65 2.34.92 3.48.92-.03 1.81-.05 2.69-.06.76 0 1.53-.01 2.3-.01l4.12.03c2.75.01 5.5-.07 8.17-.53l-.04.33c1.58-.18 3.12-.29 4.8-.35 2.18-.51 4.29-.91 6.48-1.29 1.09-.18 2.19-.35 3.28-.53 1.14-.17 2.28-.35 3.42-.52l.57-.15.28-.08c.1-.02.2-.04.21-.15.15-.34.33-.68.53-1.02.34-.76.64-1.34 1-1.94.35-.6.74-1.17 1.15-1.73.82-1.12 1.76-2.14 2.75-3.1 1.49-1.24 2.81-2.2 4.23-3.02 1.42-.82 2.92-1.56 4.84-2.05l.2.37c1.49-.81 3.21-1.15 4.94-1.3.87-.03 1.75-.02 2.64.02.88.09 1.76.18 2.64.3 3.53.52 6.92 1.47 10.52 1.5l-.6.42c.62-.28 1.64.05 2.48.27.83.25 1.51.38 1.52-.38l1.06.79c1.3-.13 2.43.1 3.52.45 1.09.35 2.1.86 3.11 1.45 1.02.59 2.07 1.16 3.2 1.73 1.13.57 2.4 1.07 3.84 1.37-.15.06-.31.11-.48.17 1.65.47 2.93.89 4.2 1.85-.13-.01.03.18-.27.14.34.26.68.51 1.04.75.34.21.83.64.86.36.09-1.06.06-2.57.04-4.02 0-.72-.01-1.45.01-2.14 0-.57.01-1.14.01-1.71.04-2.27.22-4.61.9-6.77l.45.73c-.01-1.26.52-2.95 1.35-4.58.84-1.63 1.93-3.2 2.8-4.55l.12.34c.2-.52.48-.99.73-1.5l.48.39c1.41-1.46 2.89-2.78 4.56-3.88.41-.28.86-.5 1.29-.76l.65-.37.69-.3c.46-.2.92-.41 1.4-.59.54-.23 1.03-.37 1.52-.52z"/><path d="M606.28 133.98c-.01.01-.03.02-.04.02-.05.14-.01.08.04-.02zM621.43 87.89c.18-.06.33-.1.5-.14-.1-.09-.35.08-.5.14z"/></g><g><path d="m546.54 217.78.49.47 1.74.31zM556.92 222.09c-.24-.24-.02-.3-.26-.55-2.16-.66-4.28-1.35-6.47-1.89 1.11 1.03 2.43 1.26 3.65 1.45 1.23.18 2.38.26 3.08.99zM558.51 223.2c1.98 1.65 3.25 1.62 3.88 1.74-1.04-.02-3.96-2.68-3.88-1.74zM648.09 420.2c-.01-.24-.03-.56-.06-.8-.01.41.02.67.06.8z"/><path d="m647.12 479.62.48.68c.28-5.57.57-11.51 1.26-17.43.72-5.96 1.29-12.03 1.35-17.92l.16.81c.84-14.92.52-29.3-.58-43.57-1.13-14.27-3.1-28.44-5.97-42.93.14.44.33.57.48 1.02-.44-1.37-1.07-2.86-1.34-4.43.04-.43.34.39.49.88-.15-3.15-1.2-7.63-2.36-11.76-.58-2.07-1.14-4.06-1.62-5.78-.46-1.72-.8-3.17-.89-4.15-.56-1.67-1.13-2.31-1.16-1.29-3.17-11.09-7.21-22.35-12.15-33.25-5-10.86-10.92-21.36-17.8-30.78-.53-.99-.44-1.31-.01-1.23-6.25-7.83-12.93-15.52-20.17-22.74-7.23-7.22-15.15-13.85-23.55-19.59-.86-.11 1.48 1.51-.39.73 5.12 3.99 10.3 6.14 14.43 10.47-.27-.07-.55-.13-.83-.19 3.1 2.98 1.28-.16 4.33 3.14 1.11 1.39-.65.07-.06.63 6.92 5.97 13.08 13.24 19.12 19.44.75 2.11 5.88 7.91 7.11 11.17 1.57 1.8 2.77 3.85 3.72 4.32 16.62 27.52 27.36 59.32 32.47 92.05 1.99 7.54 2.96 16.06 3.52 24.94.55 8.89.68 18.15 1.09 27.36-.05.13-.11.11-.16-.02.5 6 .62 14.78.12 21.94.15 2.03.27 4.07.37 6.11-.24 2.69-.5 5.39-.79 8.08l-.46 4.03-.53 4.1c-.27 2.7-.53 5.4-.8 8.1l-.19 2.03-.27 2.02-.52 4.04c-1.44 10.78-3.39 21.53-6.06 32.12-5.4 21.15-13.66 41.73-25.23 60.27-12.98 21.17-28.97 38.44-46.5 53.37-8.78 7.48-18.07 14.28-27.76 20.74-9.69 6.47-19.86 12.46-30.55 18.22-.01-.17-.4-.07.7-.68-6.22 3.2-12.36 5.9-18.47 8.33-6.11 2.45-12.19 4.72-18.36 7.04l-.01-.16c-15.23 6.03-31.73 10.58-48.28 14.02-8.27 1.74-16.57 3.19-24.75 4.46a502.136 502.136 0 0 1-18.18 2.47c-.99.11-1.99.22-2.97.32-.92.07-1.97.06-2.94.1-2.41-.04-4.83-.09-7.28-.13-2.44-.06-4.9-.22-7.38-.32-1.24-.06-2.48-.11-3.72-.17-1.24-.07-2.49-.18-3.74-.27-2.5-.2-5.02-.36-7.54-.59-10.09-.96-20.32-2.41-30.53-4.37-20.42-3.91-40.66-10.32-59.19-18.86l.22-.24c-3.74-1.63-7.35-3.49-10.95-5.34-3.54-1.97-7.08-3.91-10.47-6.08-6.84-4.25-13.41-8.87-19.64-13.89-12.49-10.02-23.91-21.27-34.55-33.52-10.51-12.96-20.56-26.92-29.23-41.85-8.63-14.93-15.9-30.78-20.81-46.97-2.59-10.15-6.3-21.62-9.13-33.24-.7-2.9-1.36-5.81-1.93-8.7a130.4 130.4 0 0 1-.77-4.32c-.1-.73-.24-1.41-.29-2.18l-.12-2.14c-.15-2.83-.27-5.6-.3-8.28.02-2.68.11-5.26.27-7.72.57-10.1 1.16-20.08 2.14-29.98.97-9.9 2.16-19.73 3.71-29.52 3.14-19.55 7.79-38.94 14.82-57.94 7.49-17.08 16.18-33.65 26.67-48.92 10.46-15.26 22.72-29.21 36.62-40.77 5.94-6.19 13.12-11.7 20.78-16.87 7.67-5.16 15.81-9.98 23.86-14.96l-.78.01c3.21-1.26 6.3-3.48 9.18-5.47 2.88-1.97 5.58-3.67 7.87-3.85l-.6.4c3.59-.83 6.6-5.6 9.07-5.56l.35-.65c3.95-1.91.68.23 3.84-.98 1.15-.55.12-.94 2.67-1.75.62.72 3.04-.42 5.48-1.44 2.43-1.04 4.88-1.97 5.36-1.07-2.23.81 3.76-.53-1.1 1.69.75-.16 2.81-.9 4.59-1.6 1.78-.72 3.25-1.4 2.82-1.71.34-1.04 2.91-2.62-1.61-2.03l-.66.91c-1.64-.16-1.19.04-1.86-.26-5.57 1.85-6.62 1.27-10.7 2.46.05 0 .09 0 .04.06-2.37 1.82-6.21 2.95-8.33 3.8l-.99.04c-1.6-.14-5.41 4.21-4.36 2.25-10.64 5.44-22.59 12.14-33.66 19.58-1.29 1.42-8.42 5.76-5.48 4.89-1.68.51-4.58 2.15-7.38 4.02-2.82 1.84-5.51 3.94-6.95 5.09.04-.17.09-.36.57-.68-6.49 3.42-5.71 6.38-11.89 9.51.02.81-2.32 2.76-4.83 5.05a53.376 53.376 0 0 0-3.65 3.53c-1.09 1.17-1.98 2.27-2.37 3.21-.77.4-1.14.42-1.09.05-4.27 4.28-8.62 8.94-12.71 13.53-4.1 4.58-7.8 9.2-10.9 13.29a74.3 74.3 0 0 1-3.83 6.03c-1.42 2.08-2.9 4.23-4.35 6.36-1.4 2.16-2.81 4.27-3.96 6.33-1.14 2.07-2.11 4.04-2.73 5.85-3.38 5.22-8.66 13.89-11.66 22.1l.18-.85c-.98 2.25-2.06 4.62-3.01 7.08-.97 2.45-1.97 4.92-2.78 7.35-1.74 4.83-2.98 9.42-3.63 12.74-1.12 1.15-1.92 2.77-2.67 4.59-.76 1.81-1.39 3.84-2.17 5.82-.27 1.63-.76 3.63-1.24 5.9-.5 2.26-1.05 4.78-1.63 7.41l-1.56 8.07c-.43 2.71-.82 5.38-1.13 7.86-.94 1.39-1 8.17-2.05 8.53-1.13 13.97-1.97 29.52-2.23 45.33-.16 7.9-.06 15.87.08 23.72l.01.74c0 .11-.01.26.02.49l.04.4.15 1.49c.11.98.22 1.96.34 2.94.24 1.95.5 3.88.78 5.8.56 3.83 1.2 7.6 1.87 11.28l-.17-.41c1.38 3.67 3.62 7.71 5.33 11.3.02.39-.14.39-.36-.4 1.61 5.17 2.18 10.31 4.06 15.42-.16.01-.17.01-.59-.78 2.01 4.69 2.7 10.24 5.6 15.58l-.11.41c.59 1.14 1.14 2.29 1.75 3.42-.32.03-.85.08-1.5-1.86 8.51 21.8 20.22 42.81 34.78 61.81 14.55 19.01 31.94 35.98 51.37 50.04l-1.62-.77 3.96 2.47c1.31.83 2.63 1.64 3.99 2.4-.13.11-.54-.07-.96-.26 9.55 7.09 20.77 12.36 31.14 17.35-.11.12-1.83-.36-.44.5 2.01.75 3.8 1.47 5.4 2.2 1.6.73 3 1.47 4.3 2.12 2.63 1.23 4.83 2.14 7.14 2.08.34.22.45.7-.41.52 22.46 7.95 46.39 13.23 70.16 15.92 9.99.19 20.47.82 31.09.89l3.98.06c1.44-.01 2.7-.15 4.05-.25 2.65-.22 5.3-.51 7.92-.84 5.25-.67 10.44-1.54 15.47-2.67l-.05.34c13.08-2.66 26.51-5.47 39.94-8.9 13.42-3.41 26.83-7.5 39.69-12.59 10.74-4.08 17.7-7.55 28.04-12.64l.44.24c8.35-5.02 17.41-9.65 26.3-14.91 8.88-5.24 17.61-11.1 24.94-18.16l-.74 1.32c.94-1.34 3.39-3.19 5.3-4.84 1.9-1.66 3.35-3.02 2.41-3.17.99-.68 2.01-1.32 2.97-2.04 2.19-2.7 4.49-5.03 6.75-7.36 2.33-2.27 4.63-4.52 7-6.83 1.21-1.14 2.39-2.35 3.57-3.6 1.19-1.25 2.42-2.52 3.62-3.89 2.35-2.78 4.81-5.78 7.06-9.35l-.39 1.09c2.56-3.69 5.33-8.11 7.5-10.65-.24.46-.01.32-.56 1.24 4.48-5.45 8.48-11.77 11.83-18.52 1.78-3.32 3.25-6.82 4.85-10.23.74-1.73 1.48-3.47 2.21-5.19.74-1.72 1.51-3.42 2.18-5.14l-.03 1.81c.99-3.48 2.95-8.16 4.73-13.22.97-2.5 1.81-5.12 2.62-7.67.4-1.27.79-2.53 1.17-3.75.34-1.23.63-2.43.9-3.58l.14.63.85-4.71.63.04c3.11-11.84 4.63-23.34 5.96-35.21z"/><path d="M643.45 356.74c0 .04.01.09.01.13.12.35.08.17-.01-.13zM279.61 202.71c.54-.18.99-.32 1.45-.46-.15-.07-.99.3-1.45.46z"/></g><g><path d="m135.56 389.36.3-.21-.16-.94zM137.32 384.29c-.18.04-.24-.12-.42-.07-.19.55-.29 1.16-.41 1.69-.08.57-.11 1.16-.15 1.69.36-.18.51-.44.56-.75.03-.16.03-.32.01-.5 0-.16-.01-.33-.02-.5-.05-.68-.13-1.46.43-1.56zM138.06 383.76c.59-.21.84-.54 1.01-.84.18-.28.24-.59.3-.76-.12.6-1.99 1.19-1.31 1.6zM203.83 439.35c-.07.13-.14.3-.19.44.14-.2.2-.35.19-.44z"/><path d="m208.84 405.83-.55-.37c.81 6.29-.95 13.24-2.06 19.71l-.09-.48c-1 4.05-2.2 7.96-3.84 11.64-1.64 3.67-3.64 7.17-6.3 10.14-2.66 2.96-5.97 5.39-9.77 6.89-.96.36-1.93.65-2.92.95-1.03.17-2.07.2-3.11.16a19.19 19.19 0 0 1-6.16-1.31c.27.05.41-.06.69-.03-.41-.06-.86-.11-1.32-.18-.45-.1-.9-.24-1.3-.47-.15-.22.35-.11.64-.03-1.39-1.2-3.59-2.5-5.43-4.14-1.85-1.6-3.37-3.39-3.65-4.53-.62-.79-1.19-.97-1.13-.34-2.3-3.67-3.95-7.79-5.15-12.05-.27-1.07-.57-2.14-.81-3.22-.22-1.09-.49-2.17-.68-3.26-.18-1.09-.39-2.19-.55-3.29l-.46-3.42.05-1.03.03-.89.03-1.79c.01-1.19 0-2.39-.03-3.58-.07-2.38-.2-4.74-.45-7.07.09-.63.33-.76.66-.61-.52-2.78-1.02-5.56-1.63-8.29-.6-2.73-1.31-5.42-2.33-7.87-.52-1.21-1.1-2.36-1.81-3.34-.71-.96-1.53-1.73-2.44-2.22-.16-.1-.25-.16-.39-.18-.17-.03-.56-.08-.84-.1-.62-.06-1.24-.06-1.87-.02-1.24.08-2.46.34-3.57.82-.16.5 1.03.01.37.74 1.39-.35 2.63-.83 4-1.1.34-.07.68-.11 1.03-.14.17-.01.34-.02.51-.02l.38.01c.07 0 .13.01.19.05l.1.06.18.11c.25.12.44.4.64.62l-.46.14c.14.14.27.23.37.29.1.08.18.13.26.15.15.04.26-.01.37-.05.21-.09.45-.15.91.78.23.83-.49.13-.3.44 1.27 1.59 2.18 3.83 2.87 6.15.71 2.33 1.29 4.73 2.05 7.04-.34.64-.19 1.98-.07 3.43.11 1.45.2 3-.16 3.96.38 1.31.31 2.64.86 3.14-.02 1.67-.07 3.35-.14 5.04-.04.84-.09 1.69-.13 2.54l-.08 1.27-.12 1.49.33 3.07c.09.96.26 1.92.4 2.88s.3 1.92.51 2.88c.19.96.37 1.92.63 2.87.92 3.81 2.2 7.6 4.02 11.2.42.91.98 1.77 1.47 2.66.57.85 1.09 1.73 1.73 2.53 1.22 1.65 2.62 3.2 4.22 4.55 3.17 2.73 7.12 4.65 11.33 5.28 1.24-.01 2.48-.08 3.75-.23.32-.04.64-.08.97-.14.18-.03.43-.07.58-.13l.46-.15c.59-.19 1.19-.38 1.79-.58 2.35-.89 4.8-1.87 7.03-3.38 2.23-1.47 4.38-3.23 6.16-5.33 1.78-2.09 3.3-4.43 4.43-6.91.09-.04.13 0 .14.08 1.33-3.34 2.88-8.18 4.09-12.16.08-1.19.12-2.38.15-3.56 1.55-5.72 2.38-11.66 2.71-17.63.08-1.49.12-2.99.13-4.5 0-.75 0-1.5-.02-2.26 0-.38-.04-.81-.02-.99l.07-1.09.28-4.38c.12-1.46.31-2.9.46-4.35.71-5.79 1.83-11.54 3.8-16.97l.36-1.02.42-.99.85-1.97c.65-1.27 1.28-2.55 2.06-3.73.74-1.2 1.58-2.33 2.48-3.37.46-.51.93-1.01 1.42-1.45.25-.22.49-.45.74-.63.12-.09.25-.21.37-.28.11-.07.27-.18.29-.19l.06-.02.31-.25 1.14-.92c.38-.3.8-.49 1.19-.75.44-.25.9-.41 1.34-.61.46-.09.91-.29 1.37-.29.91-.14 1.82-.01 2.71.26.88.27 1.75.72 2.53 1.3.39.29.76.61 1.08.93.06.06.07.08.11.13.01.01.05.07.02.04l.11.16.52.78c1.41 2.06 3.02 4.08 5.37 5.65.56.41 1.25.72 1.91 1.03.72.26 1.46.49 2.26.57.8.1 1.63.06 2.45-.09.83-.2 1.55-.42 2.38-.92l.15-.09c.05-.02.12-.02.18-.03.06-.01.08 0 .18-.02l.41-.06c.27-.05.52-.14.78-.21l.77-.22c.25-.09.48-.19.72-.29.49-.19.96-.41 1.39-.66.45-.24.89-.48 1.29-.77a25 25 0 0 0 4.36-3.69c2.55-2.69 4.58-5.64 6.4-8.68 1.8-3.05 3.37-6.2 4.77-9.43.7-1.61 1.36-3.25 1.97-4.91.31-.83.61-1.66.89-2.51l.42-1.27.1-.32.05-.16.02-.08.07-.3c.12-.18.81-.93 1.3-1.48l.79-.89c.27-.3.57-.55.86-.83.58-.56 1.17-1.12 1.75-1.68.63-.52 1.27-1.04 1.9-1.56.06.15.28.1-.24.54 3.05-2.3 6.4-3.88 9.81-4.98 3.42-1.1 6.92-1.72 10.48-2.15l-.01.16c1.45-.19 3.01-.31 4.43-.27l.11.01c2.03.01 4.08.24 6.07.78 1.98.57 3.9 1.42 5.69 2.51 3.58 2.19 6.57 5.34 9.03 8.8 2.45 3.49 4.42 7.3 6.08 11.17.83 1.94 1.58 3.9 2.27 5.85.67 1.96 1.37 3.91 1.79 5.87.52 3.59 1.31 7.24 2.62 10.81.36.88.65 1.79 1.08 2.65l.61 1.31c.22.43.46.85.69 1.27.44.86 1.01 1.65 1.53 2.48.6.78 1.16 1.58 1.84 2.3 2.59 2.97 6.08 5.28 9.97 6.36 3.89 1.08 8.04 1.13 11.99.09.06-.02.13-.04.2-.05 7.53-1.4 15.13-4.03 21.93-7.69l.09.3c4.06-2.23 7.97-4.65 11.7-7.28 1.88-1.3 3.69-2.7 5.46-4.14.89-.72 1.74-1.47 2.6-2.26l2.52-2.21c3.5-2.77 7.49-4.84 11.66-6.41 4.18-1.55 8.54-2.7 13.01-3.44 2.32-.23 4.65-.43 6.98-.41 2.31-.04 4.59.27 6.83.9 4.46 1.31 8.7 3.73 11.94 7.38 3.55 3.44 7.98 5.9 12.7 7.03 4.7 1.21 9.57 1.33 14.32.81.75-.01 1.5-.1 2.27-.2.38-.07.77-.12 1.16-.21l.56-.13c.18-.04.32-.04.53-.07 1.62-.17 3.29-.7 4.71-1.69 1.43-.97 2.59-2.3 3.46-3.78.87-1.48 1.47-3.09 1.89-4.73.42-1.63.66-3.3.81-4.93.17-1.64.08-3.24.21-4.88.22-3.24 1.11-6.32 2.64-8.69.91-1.48 1.93-2.85 3.1-4.05 1.15-1.18 2.51-2.27 3.86-2.93l.07-.04c2.95-1.72 6.25-2.58 9.44-2.26 3.18.41 6.21 1.94 8.64 4.16.31.27.6.56.88.85.14.16.26.26.34.39l.36.51c.53.73 1.02 1.49 1.64 2.16l.89 1.03c.31.33.66.64.99.96.63.66 1.41 1.18 2.14 1.74 1.55 1.01 3.31 1.77 5.16 1.97.46.07.93.04 1.39.06.46-.05.93-.06 1.38-.17.89-.17 1.83-.51 2.52-.95l.38-.08c2.46-.43 4.77-1.55 6.85-2.87 2.09-1.34 4.03-2.91 5.84-4.6 1.04-.78 2.04-1.61 3.01-2.48.47-.43.98-.9 1.4-1.32.17-.2.36-.48.56-.75l.59-.8c1.6-2.12 3.43-4.1 5.62-5.69 1.11-.77 2.31-1.44 3.62-1.87 1.31-.43 2.72-.61 4.11-.48 2.81.25 5.34 1.68 7.35 3.51.51.46.98.95 1.43 1.46.24.28.52.61.73.94l.3 1.14.97 3.75.94 3.74.23.93.29.92.58 1.83c.37 1.23.74 2.45 1.11 3.67.36 1.23.69 2.46 1.15 3.65.86 2.4 1.61 4.84 2.42 7.26 1.3 2.05 2.41 4.24 3.44 6.54a179.6 179.6 0 0 1 3.33 6.94c1.21 2.31 2.42 4.68 3.78 6.99.72 1.13 1.46 2.25 2.23 3.36l1.17 1.65c.41.54.86 1.04 1.3 1.55l.06-.54c.38.93 1 1.75 1.71 2.5.7.75 1.5 1.43 2.31 2.03 1.59 1.22 2.95 2.37 3.17 3.83l-.35-.23c.41 1.04 1.63 1.51 2.75 1.92 1.11.42 2.15.73 2.25 1.53l.54-.1c1.9 1.56-.12.56 1.17 1.97.57.43.71-.4 1.69.74-.46.78.76 1.7 1.96 2.58 1.23.86 2.41 1.72 1.89 2.58-1.12-.81 1.29 1.91-1.47.41.28.37 1.33 1.13 2.31 1.7.51.28 1 .5 1.37.6.4.1.66.06.68-.17.79-.6 2.53-.46.81-2.34l-.78.28c-.33-1.02-.34-.62-.31-1.21-1.29-.97-1.87-1.72-2.31-2.46-.44-.74-.79-1.39-1.53-2.29.01.03.01.06-.04.06-.85-.19-1.63-.74-2.29-1.34-.65-.62-1.18-1.31-1.61-1.77l-.12-.61c-.01-.54-.95-.86-1.66-1.13-.71-.27-1.22-.44-.41-.57-4.91-4.31-9.87-10.02-14.05-16.03-1.04-.53-3.03-4.73-2.99-2.84-.02-1.09-.78-2.77-1.52-4.47-.73-1.71-1.59-3.36-2.1-4.23.13.02.27.03.39.33-.16-1.02-.46-1.74-.81-2.31-.32-.59-.7-1.03-1.08-1.48-.75-.88-1.46-1.78-1.45-3.79-.67 0-1.38-1.52-1.95-3.29-.62-1.75-1.34-3.65-2.41-4.36.09-.52.27-.75.53-.67-.15-.38-.3-.77-.45-1.16-.14-.39-.25-.8-.37-1.2l-.72-2.43c-.47-1.63-.93-3.27-1.39-4.87-.34-1.64-.68-3.24-1-4.78-.16-.77-.33-1.52-.48-2.24-.08-.36-.16-.72-.24-1.07l-.12-.52-.11-.45-.14-.57c-.15-.59-.61-1.04-1.03-1.51l-.31-.34-.22-.22-.43-.41c-.58-.55-1.18-1.09-1.83-1.63-1.28-1.07-2.75-2.11-4.45-2.85-1.69-.73-3.61-1.14-5.38-.97-1.76.15-3.3.76-4.32 1.61-2.04.62-4.41 2.01-6.43 3.88-1.02.93-1.95 1.98-2.78 3.08-.43.54-.78 1.12-1.14 1.69l-.13.21-.03.05.02-.02c.02-.02.01 0 .01 0-.02.04.03.01-.07.13-.18.23-.36.45-.53.67l.18-.44c-1.79 1.84-4.01 3.78-6.11 5.45-2.11 1.67-4.12 3.02-5.54 4.07-.63-.29-1.23-.34-1.82-.41a8.61 8.61 0 0 0-.88 0c-.14-.01-.28-.01-.43-.02-.18.01-.14-.03-.7.04-.26.07-.52.13-.78.2l-.43.11-.34.08c-.1.02-.2.05-.29.06-.18.02-.36.03-.56 0-.93.58-2.85.71-4.88-.48-2.04-1.11-4.05-3.26-5.67-5.29.01-.13-.02-.27-.08-.44-.1-.18-.19-.35-.29-.5-.12-.16-.23-.29-.31-.4-.38-.45-.85-.88-1.32-1.29-.93-.82-1.86-1.49-1.72-1.98-2.93-1.68-6.45-2.9-10.15-2.79-.92-.03-1.83.15-2.74.28-.91.14-1.77.47-2.65.71-.84.35-1.67.71-2.49 1.09-.77.46-1.54.92-2.32 1.38l.19-.11c-.49.27-.77.47-1.11.71a17.659 17.659 0 0 0-2.61 2.34 22.457 22.457 0 0 0-2.76 3.69c-1.59 2.63-2.61 5.54-3.26 8.48-.13.74-.32 1.47-.41 2.21l-.29 2.23c-.1 1.33-.32 2.52-.6 3.76-.58 2.43-1.5 4.7-2.72 6.44l.03-.21c-.18.89-.33 1.9-.64 2.91-.3 1.01-.78 2.03-1.47 2.84-.22.02-.27-.12.08-.33-1.1.8-2.45 1.06-3.74 1.07h-.37l-.23.02c-.26-.01-.58.11-.71.11l-1.03.15c-.69.11-1.39.22-2.1.38 0-.16 0-.16.43-.39-1.29.44-2.71.45-4.16.38-.73-.04-1.46-.05-2.21-.08-.75-.01-1.52.07-2.31.16l-.16-.27c-.67.06-1.35.15-2.02.13.1-.33.23-.73 1.26-.53-5.93-.74-11.55-3.14-15.74-7.6l-1.73-1.82c-.72-.7-1.42-1.27-2.15-1.83a30.12 30.12 0 0 0-4.66-2.88c-1.64-.8-3.37-1.44-5.14-1.93-1.79-.43-3.62-.74-5.46-.79-3.66-.06-7.04.36-10.47.99-3.4.65-6.76 1.54-10.03 2.73-3.26 1.2-6.42 2.71-9.4 4.54l-2.2 1.43-2.09 1.61c-.72.51-1.34 1.14-1.99 1.73l-1.86 1.73.23-.43c.07-.14.12-.26.22-.43a51.013 51.013 0 0 1-3.39 3.75c-.08-.14.06-.36.2-.57-2.66 1.87-5.27 3.88-7.95 5.81-2.7 1.89-5.45 3.7-8.33 5.05-.04-.15.67-.87-.19-.62-.93.75-1.9 1.17-2.78 1.55-.89.37-1.72.63-2.49.83-1.54.41-2.72.9-3.54 2.09-.24-.01-.51-.35-.11-.63-.96.36-1.91.73-2.87 1.09-.96.35-1.96.62-2.95.93-.99.31-1.98.6-3 .81-1.04.23-2.08.46-3.13.7l-.34.09c-1.93.55-4.14.76-6.24.66-2.12-.12-4.23-.52-6.18-1.33-3.93-1.55-7.15-4.57-9.34-8.22-1.76-1.98-3.13-4.46-4.15-7.11-1.05-2.66-1.68-5.53-2.18-8.43l-.34-2.21c-.16-.83-.33-1.52-.53-2.27-.38-1.47-.82-2.92-1.33-4.35-1.01-2.84-2.26-5.59-3.83-8.08l.32-.09c-2.88-4.97-6.16-9.88-10.6-13.82-2.21-1.96-4.7-3.66-7.45-4.86-2.74-1.22-5.73-1.91-8.75-2.07h.04c-1.99-.19-3.93-.15-5.88.02-.97.06-1.93.23-2.9.36-.95.18-1.91.36-2.85.59-3.22.65-5.79 1.71-8.26 2.9l-1.83.96c-.61.32-1.19.73-1.81 1.1-1.25.71-2.44 1.64-3.79 2.57l-.38-.23c-.91.93-1.82 1.88-2.78 2.77-.9.98-1.77 1.89-2.78 2.88-1.53 4.19-3.6 8.09-5.75 12-2.16 3.89-4.36 7.69-6.43 11.56l.02-.95c-.17.95-1.26 2.28-2.19 3.31-.91 1.05-1.67 1.85-.91 2.15-.59.36-1.18.72-1.79 1.02-.75 1.02-1.65 1.89-2.69 2.55-1.03.63-2.25 1.13-3.4 1.23-.16.03-.35.02-.5.08-.13.1-.28.19-.43.27-1.12.6-2.4.75-3.6.5-1.19-.25-2.3-.81-3.27-1.58-2-1.47-3.63-3.59-5.61-5.81.22.07.43.2.65.3-.39-.54-.98-.92-1.51-1.29-.55-.37-1.12-.7-1.7-.99-1.14-.58-2.26-.97-3.17-1.25.3 0 .18-.14.81-.1-1.56-.7-3.5-.8-5.26-.22-1.77.56-3.29 1.68-4.61 2.94l.16-.12c-.63.42-1.09.83-1.57 1.29-.47.45-.9.94-1.31 1.43-.82 1-1.54 2.05-2.19 3.14a54.67 54.67 0 0 0-3.34 6.73l-.22-1.14c-.49 2.03-1.55 4.71-2.4 7.63-.22.73-.44 1.47-.66 2.21-.2.74-.36 1.5-.53 2.23-.16.74-.31 1.47-.46 2.18-.13.71-.2 1.41-.27 2.08l-.25-.37-.01 2.73-.62-.02c-.48 3.45-.72 6.83-.72 10.19l-.04 2.52c.07.9.13 1.67.17 2.51.12 1.69.15 3.35.11 5.03z"/><path d="M172.76 452.47c.02.01.04.03.06.05.21.04.11 0-.06-.05zM633.83 388.5c.21.23.39.42.55.62.03-.13-.37-.43-.55-.62z"/></g><g><path d="m169.86 463.53-.19.1.53.23zM171.07 465.09c.09-.05.25-.03.34-.08l-1.51-.89c-.83.43 1.72.68 1.17.97zM170.93 465.37c-.33.37.37.5.61.58-.55-.12.14-.68-.61-.58zM173.87 496.92a.266.266 0 0 0-.06-.1c-.01.05.01.09.06.1z"/><path d="M177.41 504.72h.56c-1.2-1.36-.46-3.22-1.13-4.75l.21.08c-.22-2.04-.64-3.97-1.13-5.89-.49-1.92-1.1-3.83-1.52-5.84.06.06.23.06.3.12-.21-.17-.58-.35-.56-.58.12-.07.26.03.32.1.83-.95-.82-2.46-.17-3.07-.12-.23-.51-.3-.79-.14-.27-1.58-.55-3.22-.83-4.87-.27-1.65-.61-3.31-1.08-4.92.12-.17.36-.21.68-.19-1.72-2.7-1.17-5.69-1.05-8.55-.4-.1-.4.31-.82.03-.46.94 1.02 1.66.34 2.52l-.38-.09c-.22.62.96.09.49.74-.31.26-.48-.04-.51.07.21 1.29-.11 2.66.91 3.83-.8.35.07 1.39-.69 1.91.35.31.29.66.84.75-.18 4.56 1.1 9.09 1.49 13.69 1.84 1.96.28 4.75 1.13 7.24-.05.03-.11.03-.16.02.48.78.85 1.96.81 2.97l.79.74c-.24 3.07.09 6.09.64 9.09.27 1.5.53 3 .8 4.51.26 1.5.53 3.01.68 4.53.24 1.72.41 3.4.63 5.04.23 1.64.46 3.25.77 4.84.59 3.18 1.62 6.25 3.4 9.28-.15.03-.22.1-.33-.05.75 1.82.67 3.67 1.44 5.36l-.15.03c2.38 4.07 2.28 9.19 4.84 13.02 1.35 5.15 3.24 10.88 5.38 16.1l-.3.08c2.01 4.08 1.85 8.73 3.81 12.82.87 4.61 4.91 8.34 5.67 13.02-.41 3.25 4.04 5.59 3.56 8.68-.18 6.07 3.34 10.51 6.87 15.03 1.25 5.06 5.35 8.82 5.85 14.05 2.01 1.65.85 5.08 2.29 7.31l.31-.25c-.65 1.37 2.41 1.15 1.09 2.46l-.11-.05c-.58.85 2.4.1 1.58.84l.43-.13c.38.48-.41.29-.36.78.13.13.75-.3.69.14-1.57.89 1.01 1.14-.76 2.1-.15-.3-.46.82-1.18.35-.09.28.48 1.16 1.2.67.85-.35 1.73-.37 2.07-1.24l-.64.2c.49-.49.22-.29.63-.59-.29-.75.52-1.28.62-1.97-.01.01-.03.03-.06.03-.89.01-.71-.68-.74-1.01l.28-.28c.61-.51-1.76-.13-.46-.51-1.02-1.3-1.82-2.98-2.62-4.61-.56-.01-.56-1.27-1.27-.49.8-.89.48-2.23.23-2.66.1-.03.22-.06.21.03.89-1.49-1.7-.47-.49-2.05-1.19.4-.34-1.67-1.88-1.52.2-.22.41-.36.63-.41-.67-1.5-1-3.34-1.52-4.62-1.49-.63-.71-2.82-2.51-3.14-.05-.9-.03-2.4-1.05-3.25l.21.03c-.61-1.19-1.34-2.68-2.57-3.15 1.17-.93.68-1.35.89-2.06-.96-.56-1.47-2.29-2.56-3.31.53-.45-.68-.93.18-1.36-3.17-2.8-4.33-7.44-4.48-11.72l.08.03c-.68-.3-1.99-.44-2.82-.7.06-.08.21-.13.25-.02-.43-.63.2-1.62-.23-2.25.15-.05.15-.05.34.01-.65-.5.2-1.61-.78-2.12l.22-.13-.52-.36c.3-.1.76-.25.76.05-1.94-6.06-5.7-11.7-7.58-17.98l.36.13-.92-1.03c.15-.04.25-.01.34.02.01-1.71-1.37-3.02-1.73-4.56.15-.04.52.09.62-.17-1.19-.84.49-2.12-1.41-2.13.06-.08.44-.24.61-.17-1.53-2.91-2.52-6.1-3.16-9.32-2.33-2.15-1.8-5.48-3.79-7.86l.32-.07c-1.04-1.61-1.53-3.44-1.9-5.32-.35-1.88-.59-3.81-1.18-5.62-.27-1.56-.91-2.5-1.29-4.04l.39-.14c-2.11-2.24.01-5.76-2.22-8.11l.58.07c-.93-.23-.07-1.71-1.46-1.23l.33-.58c-2.29-1.45.11-3.55-1.56-5.57l.37.08c-.38-.55-.73-1.22-.51-1.73.06.06.16.01.28.13.98-2.16-.94-3.97-1.26-5.99l.68.11c-.92-.83-.53-2.74-1.09-3.95l.31.03-.54-.57.6-.12c-.25-1.64-1.09-3.11-1.38-4.73z"/><path d="m174.47 487.94-.02.02c.06.05.05.02.02-.02zM226.9 646.46c0 .08 0 .16-.02.24.1-.07.02-.17.02-.24z"/></g><g><path d="m212.14 436.27-.19.11.51.35zM213.21 438.41c.1-.06.25-.02.35-.07l-1.43-1.3c-.86.5 1.66 1.04 1.08 1.37zM213.05 438.76c-.36.45.32.68.55.8-.53-.19.2-.86-.55-.8zM214.69 480.08a.424.424 0 0 0-.06-.14c-.01.07.01.12.06.14zM218.28 490.47l.57.04c-1.23-1.85-.58-4.21-1.2-6.26l.21.12c-.17-2.67-.62-5.21-1.14-7.74-.49-2.53-.98-5.07-1.4-7.71.06.08.23.1.3.18-.21-.24-.59-.5-.56-.8.12-.08.26.06.33.15.83-1.18-.83-3.26-.12-4.01-.11-.31-.5-.43-.78-.24-.39-4.17-.81-8.62-1.47-12.9.13-.21.38-.24.69-.19-.74-1.82-1-3.7-.97-5.59.07-1.89.35-3.78.55-5.64-.39-.16-.43.36-.82-.02-.54 1.19.87 2.25.11 3.32l-.37-.15c-.27.79.95.19.43 1-.33.32-.48-.09-.51.06.06 1.7-.26 3.46.66 5.06-.82.39-.02 1.81-.81 2.44.32.44.24.88.79 1.04-.26 2.96-.01 5.95.24 8.94l.39 4.5c.17 1.5.32 3 .41 4.51.89 1.35.93 2.9.84 4.53-.1 1.63-.22 3.33.21 4.97-.05.03-.11.03-.16.01.5 1.05.85 2.61.79 3.92l.78 1.02c-.24 3.97.23 7.91.74 11.85.64 3.92 1.31 7.86 1.72 11.82.63 4.48.95 8.74 1.76 12.87.39 2.07.85 4.12 1.45 6.16.63 2.04 1.42 4.06 2.41 6.09-.15.02-.22.11-.33-.1.87 2.4.8 4.79 1.71 7.04l-.15.03c1.34 2.73 2 5.74 2.73 8.71.74 2.96 1.49 5.9 2.89 8.48.85 3.37 1.84 6.93 2.91 10.53 1.12 3.58 2.3 7.2 3.55 10.65l-.31.07c1.18 2.72 1.78 5.55 2.37 8.4.62 2.83 1.22 5.68 2.36 8.4 1.19 5.97 5.61 11.21 6.7 17.26-.21 4.07 4.55 7.62 4.26 11.48.21 7.66 4.18 13.74 8.14 19.97 1.65 6.56 6.18 11.92 7.05 18.57 2.22 2.4 1.22 6.5 2.88 9.52l.31-.27c-.59 1.6 2.6 1.85 1.3 3.26l-.12-.09c-.56.96 2.53.54 1.72 1.32l.44-.08c.43.67-.42.29-.33.91.14.19.77-.25.73.29-1.6.83 1.14 1.6-.68 2.48-.18-.39-.44.94-1.22.23-.08.34.57 1.51 1.3 1.04.88-.28 1.81-.15 2.12-1.17l-.67.13c.49-.52.22-.32.63-.62-.35-.99.47-1.51.53-2.35-.01.01-.03.03-.06.03-.93-.14-.79-.98-.85-1.39l.27-.3c.61-.54-1.86-.48-.52-.72-1.16-1.81-2.11-4.05-3.06-6.22-.59-.11-.67-1.69-1.36-.83.79-.98.35-2.71.06-3.3.1-.02.22-.04.23.07.84-1.73-1.81-.88-.65-2.65-1.22.31-.47-2.15-2.07-2.21.2-.24.41-.38.64-.42-.79-1.99-1.28-4.35-1.9-6.06-1.59-1.03-.95-3.66-2.83-4.35-.11-1.15-.18-3.04-1.31-4.25l.23.07c-.73-1.58-1.57-3.59-2.89-4.36 1.16-1 .62-1.6.78-2.46-1.05-.84-1.69-3.11-2.88-4.55.53-.49-.78-1.27.09-1.7-3.49-4-5-10.01-5.43-15.48l.09.05c-.73-.47-2.1-.83-2.98-1.26.06-.09.21-.14.25 0-.49-.86.09-2.02-.38-2.88.15-.05.15-.05.35.05-.7-.72.12-2.03-.94-2.8l.22-.14-.56-.53c.31-.09.77-.22.79.16-2.43-7.95-6.66-15.6-8.99-23.84l.38.21-1-1.42c.16-.04.25.01.35.07-.1-2.18-1.6-4.01-2.08-6.02.15-.04.54.17.62-.15-1.29-1.2.39-2.67-1.56-2.88.06-.09.44-.25.62-.15-1.76-3.9-2.97-8.08-3.8-12.28-1.26-1.49-1.8-3.3-2.3-5.13-.48-1.84-.92-3.71-2.01-5.33l.32-.06c-2.35-4.34-2.32-9.59-3.72-14.35-.34-2.04-1.01-3.31-1.48-5.33l.39-.14c-1.14-1.53-1.2-3.4-1.28-5.27-.05-1.88-.12-3.77-1.32-5.38l.59.14c-.95-.38-.14-2.21-1.54-1.71l.31-.72c-2.42-2.05.02-4.58-1.76-7.33l.38.13c-.41-.74-.79-1.63-.58-2.27.07.08.16.02.28.19.45-1.36.17-2.66-.26-3.96-.41-1.3-.99-2.59-1.17-3.91l.69.19c-.95-1.15-.62-3.59-1.23-5.2l.32.06-.56-.78.6-.11c-.29-2.18-1.07-4.16-1.43-6.28z"/><path d="M215.38 468.45c-.01.01-.01.02-.02.02.06.07.05.03.02-.02zM277.16 677.63c.01.11.01.2 0 .3.1-.07.01-.21 0-.3z"/></g><g><path d="m254.71 371.55-.19.16.52.42zM255.87 374.33c.09-.08.25-.04.34-.12l-1.49-1.64c-.83.72 1.71 1.29 1.15 1.76zM255.72 374.81c-.35.63.35.9.59 1.04-.54-.22.16-1.17-.59-1.04zM257.54 430.36c-.01-.06-.03-.14-.05-.19-.02.1 0 .16.05.19z"/><path d="m260.94 444.64.56.11c-1.18-2.61-.4-5.72-1.04-8.54l.21.18c-.08-1.81-.23-3.58-.42-5.32-.16-1.75-.35-3.48-.56-5.21-.43-3.45-.94-6.9-1.33-10.48.06.11.23.14.3.25-.21-.34-.58-.71-.56-1.1.12-.11.26.1.33.22.42-.78.22-1.88 0-2.92-.2-1.04-.42-2-.08-2.49-.11-.42-.5-.6-.78-.35-.38-5.62-.72-11.64-1.57-17.37.13-.28.38-.33.69-.26-1.5-4.89-.92-10.05-.69-15.07-.39-.19-.41.51-.82.01-.49 1.62.97 2.96.26 4.43l-.38-.19c-.24 1.07.95.21.47 1.32-.32.44-.48-.11-.51.1.16 2.27-.17 4.63.75 6.76-.82.54-.02 2.43-.8 3.28.34.58.27 1.17.82 1.39-.11 3.97.08 7.97.32 12l.36 6.05c.14 2.02.29 4.05.37 6.07 1.77 3.72.11 8.35.86 12.83-.05.03-.11.03-.16.01.47 1.44.83 3.57.76 5.33l.78 1.44c-.15 2.65-.15 5.31-.07 7.98.04 1.33.11 2.67.18 4 .09 1.33.23 2.66.35 4 .54 5.33 1.09 10.68 1.41 16.04.56 6.07.8 11.81 1.5 17.45.37 2.82.82 5.61 1.41 8.42.6 2.8 1.28 5.63 2.32 8.47-.15.01-.22.12-.34-.17.89 3.33.84 6.5 1.71 9.62l-.16.02c1.27 3.84 2.07 7.92 2.81 11.98.38 2.03.75 4.05 1.21 6.02a38.84 38.84 0 0 0 1.83 5.68c.94 4.59 1.94 9.49 3.24 14.39.64 2.45 1.29 4.91 1.94 7.37.65 2.45 1.43 4.86 2.14 7.23l-.31.06c1.35 3.75 2.06 7.6 2.93 11.41.41 1.91.82 3.83 1.29 5.73.46 1.91 1.01 3.8 1.74 5.65 1.73 8.03 6.81 15.41 8.68 23.44.15 2.65 1.55 5.28 2.97 7.84 1.45 2.55 2.88 5.06 3 7.58 1.4 10.01 6.58 18.26 12.07 26.48 3.1 8.56 9.15 15.56 11.89 24.01 2.98 3.06 3.15 8.26 5.88 12.05l.24-.35c-.1 2.04 3.36 2.24 2.47 4.05l-.16-.1c-.26 1.23 2.87.54 2.28 1.57l.44-.13c.7.8-.34.38-.03 1.16.22.22.73-.36.88.32-1.41 1.15 1.81 1.89.2 3.13-.34-.48-.1 1.21-1.21.38.04.43 1.23 1.86 1.82 1.21.82-.43 1.86-.38 1.77-1.65l-.66.23c.32-.69.1-.42.43-.82-.75-1.17-.06-1.9-.31-2.93-.01.02-.02.04-.06.04-1.04-.11-1.19-1.16-1.4-1.67l.18-.39c.46-.7-2.13-.48-.8-.86-1.85-2.18-3.59-4.95-5.25-7.66-.66-.12-1.23-2.11-1.7-1.01.54-1.26-.41-3.44-.89-4.18.11-.02.23-.05.26.09.38-2.18-2.18-1.08-1.43-3.35-1.2.39-1.07-2.72-2.79-2.81.15-.31.33-.48.56-.53-1.34-2.55-2.47-5.55-3.52-7.75-1.91-1.36-1.86-4.7-4-5.64-.37-1.48-.85-3.91-2.3-5.52l.25.1c-1.11-2.06-2.37-4.7-3.91-5.76 1.02-1.23.33-2.03.33-3.14-1.26-1.15-2.32-4.13-3.84-6.07.46-.6-1.05-1.7-.21-2.19-2.15-2.71-3.85-6.08-5.2-9.63a64.992 64.992 0 0 1-2.8-10.95l.1.07c-.81-.68-2.27-1.28-3.24-1.94.05-.12.2-.16.26.03-.62-1.17-.14-2.64-.75-3.81.15-.04.15-.04.37.1-.82-1.01-.14-2.64-1.33-3.75l.21-.16-.63-.75c.31-.08.77-.21.83.29-1.64-5.36-3.84-10.63-5.84-16.02-2.1-5.35-4.02-10.82-5.51-16.39l.41.32-1.14-2c.16-.03.26.05.36.13-.24-2.89-1.84-5.51-2.43-8.23.15-.03.56.3.63-.12-1.37-1.77.25-3.47-1.77-4.01.06-.11.43-.28.63-.11-1.02-2.69-1.79-5.48-2.52-8.29-.69-2.82-1.35-5.65-1.81-8.5-2.59-4.34-2.36-9.89-4.59-14.52l.32-.04c-2.33-6.13-2.52-13.09-3.79-19.66-.33-2.77-1.03-4.56-1.51-7.31l.39-.13c-2.28-4.41-.07-9.99-2.47-14.6l.6.26c-.96-.64-.13-2.98-1.54-2.49l.32-.92c-2.34-3.06.15-6.14-1.59-10.05l.38.23c-.4-1.05-.76-2.28-.54-3.12.07.12.16.05.28.3.49-1.77.21-3.55-.18-5.34-.38-1.79-.92-3.59-1.07-5.38l.68.34c-.92-1.65-.53-4.89-1.1-7.13l.32.11-.54-1.11.61-.09c-.12-1.48-.39-2.9-.65-4.32-.16-1.46-.41-2.87-.56-4.31z"/><path d="M258.43 414.75c-.01.01-.01.02-.02.03.06.09.05.05.02-.03zM338.8 695.54c.05.13.08.25.1.37.08-.1-.06-.26-.1-.37z"/></g><g><path d="m318.13 345.25-.23.11.38.59zM318.45 348.45c.11-.06.25.03.37-.03l-.96-2.11c-1.01.51 1.27 1.8.59 2.14zM318.17 348.9c-.51.56.08 1.02.27 1.24-.45-.38.49-1.17-.27-1.24zM307.77 407.37c0-.06-.01-.15-.02-.21-.04.1-.03.17.02.21z"/><path d="m309.19 422.93.55.18c-.82-2.91.37-6.09.12-9.14l.18.22c.17-1.92.26-3.8.3-5.67.13-1.86.22-3.71.29-5.56.16-3.7.14-7.42.44-11.24.04.13.2.19.24.32-.13-.39-.42-.84-.31-1.25.14-.09.24.15.27.29 1.16-1.47.17-4.78 1.02-5.67-.03-.46-.37-.72-.7-.52.18-1.49.36-3.01.54-4.55.2-1.53.31-3.1.59-4.64.49-3.09.93-6.21 1.22-9.29.18-.26.44-.26.73-.11-.49-5.49 1.74-10.66 3.34-15.78-.32-.31-.54.42-.79-.21-.93 1.54.09 3.32-1.02 4.64l-.31-.29c-.54 1.04.86.47.08 1.49-.43.37-.43-.23-.52-.03-.47 2.39-1.56 4.74-1.08 7.2-.92.37-.57 2.54-1.53 3.25.18.69-.03 1.28.45 1.63-2.37 8.19-2.81 16.93-4.14 25.5 1.14 4.22-1.25 8.84-1.23 13.7-.06.03-.12.02-.16-.02.22 1.6.33 3.89.01 5.75l.58 1.63c-.51 2.79-.87 5.61-1.15 8.44-.21 2.84-.23 5.69-.28 8.55-.02 2.86-.09 5.73-.07 8.59.07 2.86.11 5.73.05 8.6-.12 6.52.08 12.63.39 18.69.12 3.04.56 6.03 1.04 9.06.51 3.02 1.14 6.06 2.01 9.14-.15 0-.23.11-.34-.2.83 3.57.73 6.95 1.54 10.31l-.16.01c1.18 4.14 1.95 8.5 2.67 12.84.36 2.17.72 4.33 1.18 6.43.51 2.09 1.11 4.13 1.87 6.07.49 2.45.99 4.98 1.5 7.56.57 2.57 1.22 5.17 1.87 7.79.66 2.61 1.29 5.26 2.04 7.86.77 2.59 1.54 5.17 2.29 7.7l-.31.06c.71 2 1.22 4.03 1.76 6.05.53 2.02.98 4.05 1.43 6.09.45 2.03.89 4.07 1.4 6.1a65.19 65.19 0 0 0 1.93 5.99c.48 2.12 1.17 4.22 1.95 6.3.8 2.07 1.75 4.11 2.66 6.17.92 2.05 1.83 4.1 2.63 6.18.83 2.07 1.57 4.15 2.09 6.29.35 5.65 6.04 11.1 6.36 16.42 1.65 10.59 6.96 19.44 12.59 28.33 3.18 9.14 9.28 16.87 11.91 25.96 1.51 1.71 2.26 3.93 2.95 6.26.72 2.32 1.37 4.75 2.69 6.84l.26-.34c-.19 2.12 3.33 2.67 2.33 4.47l-.16-.12c-.32 1.25 2.89.87 2.24 1.89l.46-.08c.66.92-.37.36-.1 1.21.21.26.76-.29.88.43-1.49 1.03 1.71 2.2.01 3.29-.32-.54-.18 1.24-1.26.24.02.45 1.09 2.06 1.74 1.47.87-.33 1.92-.11 1.94-1.46l-.69.14c.37-.67.14-.42.49-.79-.68-1.34.05-1.99-.13-3.12-.01.02-.02.04-.06.04-1.05-.24-1.15-1.35-1.33-1.92l.21-.38c.5-.69-2.15-.75-.77-1-1.77-2.49-3.44-5.57-5.03-8.58-.67-.19-1.18-2.33-1.69-1.22.57-1.27-.34-3.65-.8-4.47.11-.02.23-.03.26.12.45-2.28-2.17-1.32-1.39-3.64-1.24.33-1.03-2.96-2.77-3.17.15-.31.34-.49.58-.52-1.36-2.76-2.44-6.02-3.51-8.39-1.96-1.53-1.88-5.07-4.03-6.17-.38-1.58-.89-4.16-2.36-5.93l.26.12c-1.1-2.25-2.44-5.07-4-6.25 1.02-1.26.31-2.13.3-3.3-1.27-1.27-2.4-4.45-3.96-6.55.46-.62-1.08-1.83-.24-2.32-2.23-2.93-3.99-6.54-5.42-10.33-1.38-3.81-2.36-7.85-3.08-11.65l.1.08c-.86-.73-2.33-1.4-3.32-2.11.04-.12.2-.17.27.03-.64-1.25-.2-2.8-.84-4.05.15-.04.15-.04.37.12-.85-1.08-.19-2.8-1.42-3.99l.21-.17-.67-.8c.31-.08.77-.21.85.32-3.63-11.37-9.12-22.57-12.22-34.48l.42.35-1.18-2.14c.16-.03.27.06.37.15-.35-3.05-2.02-5.85-2.64-8.75.15-.03.57.33.63-.12-1.4-1.89.2-3.68-1.83-4.29.06-.12.43-.29.63-.11-.53-1.43-1.04-2.89-1.49-4.36-.43-1.48-.82-2.97-1.19-4.47-.74-3-1.37-6.04-1.93-9.05-2.62-4.66-2.37-10.55-4.64-15.52l.32-.03c-2.3-6.58-2.44-13.98-3.56-21.01-.27-2.95-.97-4.88-1.36-7.83l.4-.12c-2.05-4.82.23-10.6-1.93-15.64l.58.31c-.91-.74.08-3.18-1.36-2.75l.38-.96c-2.17-3.42.44-6.51-1.1-10.78l.36.27c-.31-1.14-.56-2.49-.27-3.36.05.13.15.07.25.34 1.27-3.67-.37-7.65-.43-11.48l.66.43c-.43-.92-.44-2.23-.37-3.61.06-1.38.17-2.84.01-4.05l.3.15-.41-1.23.61-.02c.1-3.23-.46-6.22-.39-9.3z"/><path d="M311.26 391.06c-.01.01-.01.02-.02.03.03.11.04.06.02-.03zM384.77 692.03c.04.14.07.27.08.4.1-.09-.04-.28-.08-.4z"/></g><g><path d="m392.37 385.03-.2.12.48.43zM393.3 387.59c.1-.06.25-.01.35-.08l-1.35-1.58c-.89.56 1.6 1.29 1 1.66zM393.12 388c-.39.53.28.82.5.97-.52-.24.25-1.02-.5-.97zM391.04 437.24c0-.05-.02-.12-.04-.17-.03.09-.01.14.04.17z"/><path d="m393.45 450.06.56.13c-1.01-2.38-.02-5.08-.48-7.6l.2.17c.05-3.2-.04-6.28-.26-9.36-.19-3.08-.56-6.16-.63-9.34.06.1.22.14.28.24-.18-.31-.52-.66-.46-1.01.13-.09.25.1.31.22.97-1.31-.44-3.97.3-4.78-.08-.38-.46-.56-.76-.36-.1-5 .07-10.34-.33-15.47.14-.24.39-.26.7-.18-1.28-4.45-.19-8.96.41-13.37-.38-.21-.45.41-.82-.06-.61 1.39.73 2.7-.1 3.94l-.36-.2c-.32.92.93.27.36 1.21-.35.36-.47-.14-.51.04-.01 2.02-.58 4.08.25 6.04-.85.41-.16 2.15-.99 2.84.29.54.18 1.06.71 1.29-.22 1.75-.35 3.51-.45 5.29-.04.89-.08 1.78-.11 2.67l-.01 2.68c.01 3.58.06 7.18-.1 10.77 1.53 3.4-.41 7.39.06 11.4a.15.15 0 0 1-.16-.01c.37 1.31.53 3.2.36 4.76l.68 1.31c-1.35 9.36-.16 18.91-.29 28.41.03 2.7.01 5.32 0 7.9.02 2.57.08 5.1.2 7.61.14 2.51.31 5.02.7 7.53.39 2.51.92 5.04 1.65 7.62-.15 0-.23.09-.32-.17.28 1.5.34 2.95.4 4.37.08 1.43.16 2.83.46 4.23l-.16.01c1.95 6.92 1.35 14.69 3.54 21.31.46 4.13 1 8.52 1.67 12.95.71 4.43 1.44 8.92 2.31 13.23l-.31.03c.87 3.42 1.13 6.88 1.42 10.33.3 3.45.58 6.91 1.41 10.33.28 3.62 1.38 7.19 2.45 10.78 1.11 3.58 2.18 7.16 2.4 10.82-.62 4.72 3.77 9.86 3.09 14.31-.58 9.01 2.81 16.93 6.22 25.03 1.01 8 5.11 15.2 5.41 23.13 2.03 3.26.68 7.83 2.1 11.69l.34-.25c-.74 1.74 2.49 2.69 1.06 4.06l-.12-.13c-.64 1 2.52 1.14 1.64 1.89h.46c.39.87-.45.25-.41.99.13.25.8-.13.72.49-1.69.64 1.04 2.09-.88 2.74-.15-.5-.51 1.01-1.26.02-.1.38.47 1.88 1.24 1.48.91-.15 1.85.2 2.24-.93l-.69.02c.54-.5.24-.33.69-.59-.28-1.22.59-1.66.72-2.63-.02.01-.03.03-.07.02-.94-.35-.73-1.3-.75-1.8l.3-.29c.66-.5-1.85-.93-.47-.94-1.03-2.34-1.81-5.14-2.59-7.87-.59-.25-.54-2.1-1.31-1.25.88-.98.6-3.09.35-3.84.11 0 .23 0 .22.13.99-1.84-1.76-1.39-.43-3.22-1.26.1-.28-2.6-1.9-3.01.22-.24.45-.36.68-.35-.63-2.49-.89-5.35-1.38-7.46-1.51-1.53-.61-4.47-2.45-5.66-.02-1.36.1-3.58-.92-5.24l.22.13c-.57-2-1.26-4.51-2.5-5.69 1.26-.93.78-1.74 1.03-2.72-.96-1.2-1.41-3.98-2.46-5.92.58-.46-.65-1.65.27-1.96-3.11-5.39-4.02-12.75-3.88-19.24l.09.08c-.68-.7-2.02-1.4-2.85-2.09.07-.1.22-.12.25.05-.4-1.1.31-2.35-.09-3.45.16-.02.16-.02.35.13-.64-.98.33-2.35-.64-3.47l.24-.12-.5-.73c.32-.04.79-.1.77.35-1.61-9.82-4.96-19.66-6.38-29.8l.36.32-.84-1.87c.16-.01.25.07.34.15.15-2.58-1.14-5.03-1.38-7.49.16-.01.52.31.64-.06-1.14-1.67.68-3.06-1.23-3.7.07-.1.47-.21.64-.05-1.29-4.93-2.03-10.09-2.36-15.2-1.08-2-1.4-4.24-1.69-6.49-.28-2.26-.47-4.54-1.37-6.67l.33-.02c-1.82-5.56-1.18-11.74-1.98-17.63-.12-2.46-.61-4.09-.84-6.56l.4-.1c-1.88-4.04.65-8.83-1.3-13.05l.57.26c-.9-.62.13-2.64-1.32-2.29l.39-.8c-2.12-2.83.52-5.42-.88-8.97l.36.22c-.31-.95-.58-2.06-.3-2.79.06.11.16.05.26.28 1.25-3.08-.48-6.36-.5-9.54l.66.34c-.8-1.51-.17-4.35-.58-6.36l.31.11-.46-1.01.61-.04c-.12-2.6-.72-5.06-.79-7.63z"/><path d="M392.95 423.5c-.01.01-.01.02-.02.03.05.08.05.04.02-.03zM432.19 681.59c0 .13-.01.23-.03.34.11-.05.03-.23.03-.34z"/></g><g><path d="m460.27 374.2-.16.17.57.26zM461.8 376.34c.08-.09.24-.08.32-.17l-1.69-1.11c-.72.77 1.85.77 1.37 1.28zM461.72 376.77c-.25.6.47.7.72.78-.56-.09 0-1.03-.72-.78zM469.03 424.11a.558.558 0 0 0-.07-.16c-.01.08.02.14.07.16z"/><path d="m472.63 436.32.57.08c-1.21-2.23-.46-4.96-1.12-7.38l.21.15c-.15-3.14-.75-6.12-1.38-9.07-.64-2.96-1.36-5.9-1.96-8.96.07.09.24.1.31.19-.23-.27-.62-.56-.62-.9.11-.1.27.06.34.16.74-1.43-1.07-3.75-.47-4.66-.14-.35-.54-.46-.81-.22-.45-2.39-.79-4.89-1.39-7.36-.58-2.47-1.22-4.94-1.98-7.32.09-.25.32-.34.65-.32-2.17-3.94-2.31-8.4-2.78-12.71-.41-.09-.34.51-.81.16-.25 1.46 1.36 2.34.87 3.71l-.4-.09c-.09.95.97.02.65 1.04-.25.42-.49-.01-.49.17.47 1.9.47 3.96 1.68 5.62-.74.58.32 2.07-.34 2.91.4.45.4.96.97 1.06.17 1.7.42 3.4.72 5.1.15.85.31 1.7.46 2.55l.42 2.57c.58 3.43 1.2 6.87 1.62 10.35 1.99 3.05.61 7.18 1.64 10.97-.05.03-.11.04-.16.01.57 1.21.94 3.03.88 4.56l.79 1.21c-.25 4.61.08 9.2.52 13.81.44 4.6 1.01 9.21.98 13.86.26 10.53-.1 19.75 2.29 29.9-.15-.01-.24.08-.31-.18.44 2.94-.02 5.66.42 8.43h-.16c1.66 6.86.26 14.38 1.79 21.01-.01 4.06.11 8.38.2 12.77.06 4.38.19 8.83.38 13.12l-.31-.02c.31 3.44.09 6.82-.24 10.19-.34 3.37-.7 6.74-.52 10.18-.43 3.52-.05 7.15.29 10.8.29 3.64.54 7.3-.06 10.84-1.7 4.34 1.41 10.26-.43 14.32-1.42 4.19-1.85 8.35-1.8 12.54.02 4.19.48 8.41.93 12.7-.66 3.88-.63 7.81-.71 11.71-.08 3.89-.25 7.75-1.48 11.46.8 3.69-2.04 7.42-2.13 11.42l.4-.1c-1.32 1.31 1.33 3.35-.51 4.07l-.06-.16c-.96.66 1.9 1.98.8 2.33l.42.17c.03.93-.51.05-.76.74.03.27.79.19.47.72-1.8-.08.15 2.29-1.88 2.12.06-.5-.87.69-1.16-.48-.24.29-.32 1.82.55 1.79.89.24 1.61.94 2.42.09l-.64-.27c.7-.24.36-.2.87-.25.23-1.21 1.21-1.27 1.7-2.1-.02.01-.04.01-.07 0-.73-.69-.17-1.46 0-1.93l.39-.15c.8-.21-1.35-1.55-.07-1.04-.06-2.52.22-5.37.49-8.15-.46-.44.25-2.12-.77-1.61 1.17-.59 1.63-2.63 1.65-3.41.1.04.22.08.16.2 1.56-1.36-1.17-1.88.71-3.13-1.22-.33.62-2.5-.76-3.42.29-.15.54-.19.76-.1.25-2.51.89-5.26 1.12-7.38-.94-1.9.83-4.37-.55-6.05.43-1.27 1.19-3.33.7-5.18l.17.19c.05-2.05.13-4.61-.72-6.07 1.48-.51 1.25-1.41 1.76-2.27-.58-1.41-.19-4.15-.69-6.27.68-.28-.19-1.73.78-1.79-1.58-5.94-.49-13.1 1.14-19.28l.07.09c-.5-.83-1.64-1.81-2.29-2.66.09-.08.25-.06.24.11-.14-1.14.85-2.17.71-3.32.16.02.16.02.31.21-.39-1.08.85-2.18.15-3.46l.26-.06-.33-.81c.32.03.8.08.68.5.17-2.44.21-4.91.2-7.39-.05-2.48-.18-4.98-.3-7.48-.25-5.01-.49-10.05-.28-15.06l.3.37-.53-1.95c.16.01.24.11.31.2.55-2.48-.35-5.06-.21-7.47.15.01.46.38.64.04-.87-1.79 1.14-2.87-.67-3.77.08-.08.49-.14.64.04-.61-4.98-.48-10.09-.33-15.1-1.71-4.15-.32-8.84-1.69-13.15l.33.01c-.64-2.79-.62-5.68-.61-8.6.02-2.92.14-5.87-.09-8.77.03-2.42-.42-4.03-.54-6.45l.4-.08c-1.72-4 1.09-8.65-.94-12.81l.57.26c-.9-.61.13-2.59-1.32-2.25l.39-.78c-2.13-2.77.54-5.31-.95-8.77l.36.21c-.33-.92-.62-2-.35-2.72.06.11.16.05.26.26 1.16-3.05-.51-6.22-.75-9.33l.68.3c-.9-1.44-.46-4.25-.99-6.19l.31.09-.52-.96.61-.08c-.2-2.63-.96-4.99-1.27-7.49z"/><path d="M468.97 410.59c-.01.01 0 .02-.02.03.07.07.06.03.02-.03zM473.13 667.07c-.05.11-.1.21-.16.3.13-.01.12-.2.16-.3z"/></g><g><path d="m521.9 335.76-.17.17.55.34zM523.27 338.21c.09-.08.25-.06.33-.15l-1.6-1.36c-.77.76 1.79 1.01 1.27 1.51zM523.16 338.67c-.29.62.42.79.67.91-.56-.16.07-1.11-.67-.91zM527.24 390.08a.636.636 0 0 0-.06-.18c-.01.1.02.15.06.18z"/><path d="m530.21 403.44.56.12c-1.08-2.48-.11-5.36-.7-8l.21.17c-.17-6.76-1.45-12.93-2.26-19.59.06.1.23.13.3.23-.21-.31-.59-.65-.56-1.01.12-.1.26.08.33.2.84-1.47-.82-4.11-.16-5.04-.12-.39-.51-.54-.79-.3-.13-1.3-.27-2.63-.41-3.97-.18-1.34-.37-2.68-.55-4.03-.39-2.7-.85-5.41-1.44-8.03.1-.27.35-.33.67-.29-1.87-4.42-1.69-9.22-1.85-13.89-.41-.14-.37.51-.82.1-.36 1.54 1.19 2.64.6 4.06l-.39-.14c-.16 1.01.97.11.57 1.18-.28.43-.49-.06-.5.13.33 2.08.18 4.29 1.26 6.18-.78.56.16 2.25-.55 3.09.37.51.33 1.06.89 1.23.09 3.68.51 7.38.95 11.09.35 3.72.75 7.47.93 11.23 1.78 3.43.14 7.76.91 11.91-.05.03-.11.03-.16 0 .47 1.34.77 3.32.67 4.96l.75 1.35c-1.04 9.86.22 19.84-.03 29.81-.12 5.66-.49 10.97-.51 16.24-.02 2.63.05 5.26.25 7.91.2 2.65.57 5.34 1.03 8.1-.15-.02-.24.07-.3-.21.28 3.18-.33 6.08-.04 9.08l-.16-.01c1.18 7.45-.31 15.47.79 22.67-.22 4.36-.37 9.01-.46 13.72-.07 4.72-.15 9.5-.22 14.12l-.31-.04c.14 3.71-.3 7.33-.76 10.94-.23 1.81-.46 3.61-.63 5.43-.19 1.81-.33 3.64-.33 5.49-.62 3.76-.44 7.68-.28 11.61.08 1.97.14 3.93.1 5.88-.06 1.95-.26 3.88-.65 5.76-1.94 4.59.84 11.07-1.13 15.37-3.32 8.87-2.55 17.83-2.19 27.07-1.76 8.28-.63 16.91-3.43 24.79.57 3.99-2.45 7.88-2.78 12.17l.41-.1c-1.4 1.35 1.13 3.65-.75 4.34l-.05-.17c-1 .67 1.79 2.2.66 2.53l.41.2c-.03 1-.51.04-.81.77.01.29.77.23.43.79-1.8-.16.01 2.46-2.01 2.2.09-.53-.91.7-1.13-.56-.26.31-.43 1.94.44 1.94.87.3 1.55 1.07 2.41.2l-.62-.31c.71-.22.37-.2.88-.24.31-1.29 1.28-1.31 1.83-2.19-.02.01-.04.01-.07-.01-.68-.77-.08-1.58.12-2.07l.4-.15c.81-.19-1.26-1.72-.01-1.12.08-2.71.54-5.75.97-8.73-.44-.49.36-2.27-.69-1.76 1.2-.59 1.78-2.76 1.85-3.59.1.04.21.1.15.22 1.64-1.4-1.06-2.07.89-3.33-1.2-.4.78-2.66-.58-3.7.3-.15.55-.18.76-.08.37-2.69 1.18-5.61 1.52-7.88-.84-2.08 1.1-4.66-.22-6.51.47-1.35 1.35-3.53.97-5.54l.16.21c.16-2.2.39-4.94-.38-6.55 1.5-.49 1.33-1.47 1.89-2.37-.49-1.53-.02-4.47-.4-6.76.69-.28-.1-1.87.87-1.89-.62-3.22-.57-6.74-.12-10.28.44-3.54 1.23-7.1 2.22-10.39l.06.1c-.45-.91-1.54-2.01-2.14-2.95.09-.08.25-.06.23.13-.08-1.23.97-2.3.89-3.53.16.02.16.02.29.23-.33-1.18.97-2.3.34-3.71l.26-.06-.28-.89c.32.05.79.12.65.57.57-5.23.56-10.6.6-15.98.01-2.69.02-5.4.09-8.1.05-2.7.11-5.41.32-8.1l.28.41-.43-2.12c.16.02.23.12.3.23.68-2.63-.08-5.45.19-8.03.15.02.44.43.64.07-.77-1.96 1.29-3.03-.47-4.08.09-.09.5-.13.63.07a77.53 77.53 0 0 1-.13-4.05c-.03-1.35-.03-2.71 0-4.07.06-2.72.23-5.43.47-8.12-1.48-4.54.16-9.51-.98-14.2l.33.03c-1.06-6.06.25-12.43.1-18.69.17-2.6-.19-4.35-.18-6.96l.41-.06c-1.5-4.39 1.34-9.24-.38-13.82l.56.31c-.86-.71.28-2.78-1.18-2.49l.44-.81c-1.96-3.09.85-5.68-.44-9.47l.35.25c-.28-1.01-.5-2.19-.19-2.94.05.12.15.06.25.3 1.38-3.2-.33-6.71-.36-10.06l.66.36c-.81-1.6-.2-4.59-.61-6.71l.31.12-.46-1.06.61-.05c-.08-2.74-.69-5.33-.85-8.03z"/><path d="M528.08 375.56c-.01.01-.01.02-.02.03.06.08.05.04.02-.03zM518.88 651.39c-.06.12-.11.22-.18.32.13-.01.14-.22.18-.32z"/></g><g><path d="m561.49 346.64-.17.16.56.27zM562.89 348.7c.09-.08.24-.06.33-.14l-1.61-1.11c-.77.68 1.79.8 1.28 1.25zM562.78 349.1c-.29.54.43.67.67.75-.55-.1.07-.95-.67-.75zM567.56 393.28a.395.395 0 0 0-.06-.15c-.01.08.01.13.06.15z"/><path d="m570.86 404.68.56.08c-1.13-2.1-.35-4.6-.96-6.86l.21.14c-.26-5.82-1.63-11.1-2.53-16.81.07.08.23.1.3.19-.22-.26-.59-.54-.57-.85.12-.09.26.06.33.16.81-1.3-.87-3.51-.23-4.34-.13-.33-.52-.45-.79-.23-.72-4.46-1.44-9.25-2.66-13.73.1-.23.34-.3.67-.28-1.92-3.74-1.78-7.89-1.99-11.91-.41-.11-.37.46-.81.11-.34 1.34 1.21 2.23.64 3.48l-.39-.1c-.15.87.96.06.58.99-.28.38-.49-.03-.5.13.36 1.78.23 3.69 1.33 5.28-.77.51.19 1.94-.52 2.69.37.43.34.91.9 1.02.27 6.34 1.84 12.69 2.24 19.18 1.83 2.89.24 6.68 1.07 10.23-.05.03-.11.03-.16.01.49 1.14.81 2.84.73 4.25l.77 1.14c-.18 2.13-.17 4.26-.15 6.4 0 2.14.1 4.27.21 6.41.23 4.28.57 8.57.51 12.87.03 2.44.02 4.8.01 7.12-.06 2.32-.12 4.6-.09 6.87.05 4.54.42 9.03 1.6 13.76-.15-.01-.24.07-.31-.17.39 2.73-.08 5.24.23 7.82l-.16-.01c1.33 6.39-.14 13.33 1.29 19.51-.21 7.52-.31 16.02-.06 24l-.31-.03c.4 6.4-1.55 12.48-1.32 18.85-1.03 6.48.94 13.53-.42 20.05-1.82 3.94.96 9.56-.95 13.24-.77 1.91-1.29 3.82-1.64 5.74-.38 1.92-.57 3.84-.65 5.78-.17 3.88.23 7.82.43 11.82-.88 3.55-1.01 7.2-1.24 10.81-.29 3.6-.7 7.16-2.07 10.51.58 3.47-2.48 6.71-2.79 10.41l.41-.06c-1.4 1.1 1.1 3.21-.77 3.72l-.05-.15c-1.01.53 1.78 2 .65 2.22l.41.19c-.04.86-.51.01-.81.62.01.25.77.25.42.71-1.79-.24-.02 2.13-2.02 1.79.09-.45-.91.55-1.12-.55-.26.25-.45 1.63.41 1.7.86.31 1.52 1.04 2.39.33l-.61-.31c.71-.15.37-.15.88-.15.33-1.11 1.29-1.06 1.84-1.79-.02 0-.04.01-.07-.01-.67-.71-.06-1.38.14-1.79l.4-.11c.82-.12-1.24-1.56 0-.97.08-2.35.6-4.96 1-7.52-.44-.44.37-1.95-.69-1.55 1.2-.46 1.79-2.32 1.86-3.03.1.04.21.09.15.2 1.64-1.15-1.05-1.83.9-2.85-1.2-.39.73-2.28-.6-3.23.3-.12.55-.13.76-.04.37-2.32 1.18-4.82 1.52-6.78-.83-1.82 1.02-4.01-.28-5.65.47-1.16 1.34-3.02.95-4.76l.16.18c.15-1.9.39-4.26-.43-5.67 1.49-.39 1.29-1.24 1.84-2.01-.53-1.34-.06-3.86-.45-5.85.69-.23-.11-1.62.86-1.62-.32-1.4-.47-2.85-.49-4.34-.05-1.49.03-3.02.22-4.54.37-3.05 1.16-6.12 2.11-8.95l.06.09c-.46-.79-1.55-1.75-2.17-2.56.09-.07.25-.05.23.11-.08-1.06.94-1.98.83-3.04.16.02.16.02.3.2-.36-1.02.9-1.99.24-3.21l.26-.05-.31-.77c.32.04.79.1.66.49.46-4.52.43-9.15.39-13.79-.12-4.65-.28-9.33.05-13.98l.29.35-.46-1.83c.16.02.24.11.3.19.64-2.28-.14-4.69.07-6.93.15.02.46.36.64.06-.83-1.69 1.19-2.63-.6-3.52.09-.07.49-.12.63.06-.5-4.63-.37-9.36.02-14.01-1.51-3.89-.07-8.2-1.38-12.22l.33.02c-1.16-5.2.05-10.72-.2-16.11.09-2.24-.35-3.74-.43-5.99l.4-.06c-1.65-3.74 1.17-7.99-.65-11.89l.56.25c-.87-.58.23-2.4-1.22-2.12l.42-.71c-2.03-2.61.81-4.92-.66-8.15l.36.2c-.32-.86-.59-1.87-.3-2.53.06.1.16.05.26.25 1.23-2.8-.46-5.77-.56-8.66l.66.29c-.84-1.35-.27-3.95-.72-5.76l.31.09-.48-.9.61-.06c-.12-2.37-.77-4.59-.97-6.91z"/><path d="M568.2 380.73c-.01.01-.01.02-.02.03.06.06.05.03.02-.03zM563.4 618.42c-.06.1-.11.18-.18.27.12-.01.13-.19.18-.27z"/></g><g><path d="m624.45 544.81.2-.03-.47-.3zM623.58 543.35c-.1.02-.25-.03-.35-.02l1.3 1.02c.89-.14-1.54-.91-.95-1zM623.77 543.18c.39-.2-.27-.45-.48-.56.5.2-.27.46.48.56zM627.38 519.29c0 .03.01.06.03.09.03-.04.01-.07-.03-.09z"/><path d="m625.83 512.76-.54-.13c.85 1.28-.29 2.47-.04 3.74l-.18-.11c-.65 3.07-.06 6.07-.14 9.21-.05-.06-.21-.1-.27-.16.17.18.49.39.42.55-.13.02-.25-.09-.3-.15-1.01.51.28 2-.48 2.3.07.2.43.34.74.28-.12 2.45-.42 5.05-.13 7.64-.14.1-.39.07-.7-.01 1.08 2.36.1 4.47-.58 6.56.37.16.45-.14.81.16.62-.6-.68-1.46.14-1.95l.35.15c.32-.41-.92-.27-.35-.66.35-.13.46.14.51.06.03-1 .56-1.95-.17-3.03.85-.08.22-1.04 1.05-1.26-.28-.31-.15-.55-.67-.74 1.03-3.32.79-6.93 1.38-10.4-1.31-1.86.8-3.55.55-5.56.06-.01.12 0 .16.02-.3-.68-.36-1.63-.07-2.36l-.58-.72c.98-2.18 1.32-4.47 1.59-6.78l.38-3.47c.12-1.16.27-2.31.52-3.46.43-2.61 1.06-5.05 1.32-7.51.24-2.46.16-4.92-.71-7.55.15.02.24-.02.3.12-.23-1.5.46-2.82.16-4.24l.16.01c-1.18-3.52.45-7.22-.84-10.6.15-4.06.08-8.66-.36-12.95l.31.01c-.77-3.42.8-6.79.19-10.22.34-1.79-.29-3.58-.83-5.37-.55-1.79-1.07-3.57-.72-5.38.69-1.16.16-2.4-.36-3.61-.58-1.21-1.15-2.39-.47-3.5.95-2.24.92-4.36.41-6.41-.25-1.03-.63-2.03-1.06-3.03-.48-.99-1.02-1.98-1.56-2.96.1-1.99-.57-3.87-1.11-5.73-.57-1.86-.91-3.74-.53-5.75-1.51-1.51.5-3.98-.27-5.87l-.36.16c.98-.98-1.97-1.17-.37-2.02l.09.05c.78-.59-2.24-.35-1.26-.83l-.44.05c-.23-.42.47-.18.56-.56-.08-.12-.79.15-.61-.18 1.73-.51-.63-1 1.32-1.54.06.25.67-.59 1.21-.14.16-.21-.11-.95-.92-.65-.9.17-1.74.09-2.31.72l.66-.08c-.61.32-.29.2-.76.38.05.62-.86.94-1.15 1.46.02-.01.03-.02.07-.02.84.09.47.61.42.86l-.34.18c-.72.33 1.62.3.29.45.6 1.12.9 2.5 1.23 3.83.53.07.19 1.04 1.07.53-1 .58-1.04 1.64-.92 2-.1.01-.22.02-.2-.05-1.24 1.02 1.5.57-.06 1.61 1.24-.15-.1 1.3 1.41 1.39-.25.14-.49.21-.71.23.2 1.23-.02 2.67.1 3.71 1.22.69-.12 2.22 1.49 2.73-.21.69-.65 1.81.1 2.59l-.2-.06c.26.98.55 2.21 1.6 2.75-1.38.5-1.01.89-1.41 1.39.74.58.7 1.95 1.42 2.9-.64.24.38.81-.57.98 2.17 2.63 1.99 6.29.88 9.47l-.07-.04c.56.35 1.75.71 2.46 1.06-.08.05-.24.06-.24-.03.22.55-.69 1.16-.47 1.7-.16.01-.16.01-.32-.07.47.49-.69 1.15.1 1.71l-.25.05.38.37c-.32.01-.8.03-.71-.18.02 2.42.52 4.85 1.04 7.3.42 2.46.85 4.95.81 7.44l-.31-.17.57.95c-.16 0-.24-.05-.31-.09-.5 1.24.44 2.5.34 3.7-.16 0-.47-.18-.64-.01.91.88-1.12 1.44.69 1.86-.08.04-.49.07-.64-.02.59 2.46.54 5.01.23 7.49.81 1.05.84 2.15.84 3.26-.03 1.11-.13 2.23.49 3.33l-.33-.02c1.04 2.84-.29 5.76-.17 8.66-.21 1.19.12 2.03.06 3.24l-.41.01c1.41 2.14-1.67 4.18-.11 6.41l-.54-.19c.83.39-.38 1.26 1.09 1.25l-.47.34c1.8 1.6-1.13 2.54-.04 4.42l-.34-.15c.23.49.39 1.06.04 1.38-.05-.06-.15-.04-.23-.16-1.51 1.34-.14 3.11-.33 4.66l-.63-.24c.68.83-.19 2.12.05 3.14l-.3-.09.37.54-.61-.05c-.17 1.25.22 2.52.15 3.77z"/><path d="M624.78 525.72c.01 0 .01-.01.02-.01-.04-.04-.04-.02-.02.01zM618.83 398.93c.02-.07.05-.12.09-.18-.12.04-.08.12-.09.18z"/></g><g><path d="m613.13 370.24-.2-.18-.46.55zM609.97 371.57c.1.09.06.25.16.34l1.81-1.59c-.89-.79-1.39 1.78-1.97 1.25zM609.4 371.46c-.75-.3-1.02.41-1.18.65.24-.56 1.38.09 1.18-.65zM544.89 375.5c.07-.01.16-.03.22-.06-.11-.01-.18.01-.22.06z"/><path d="m528.21 378.91-.14.57c3.08-1.18 6.68-.4 9.98-1.04l-.21.21c8.44-.3 16.15-1.75 24.49-2.64-.13.07-.16.23-.29.3.39-.22.82-.59 1.27-.57.12.12-.11.26-.25.33 1.82.82 5.15-.87 6.3-.23.49-.13.69-.52.39-.79 6.53-.6 13.53-1.17 20.16-2.26.33.11.4.35.33.68 5.62-1.81 11.62-1.55 17.47-1.64.2-.4-.62-.38-.06-.82-1.9-.38-3.38 1.15-5.12.53l.2-.39c-1.25-.17-.2.96-1.51.55-.52-.29.1-.49-.14-.5-2.62.3-5.38.12-7.81 1.17-.66-.78-2.83.13-3.84-.6-.66.36-1.35.32-1.58.87-9.23.08-18.59 1.4-28.02 1.87-4.32 1.83-9.71.29-14.92 1.14a.122.122 0 0 1 0-.16c-1.68.5-4.16.84-6.21.77l-1.68.78c-12.34-.59-24.81 1.09-37.29 1.39-14.17.59-26.64.3-40.26 3.35.01-.15-.11-.23.24-.32-3.95.62-7.61.33-11.33.95v-.16c-9.18 2.01-19.33 1.3-28.17 3.39-10.9.76-23.19 1.95-34.68 3.32v-.32c-9.16 1.47-18.21.66-27.36 2-9.53.12-19.25 3.71-28.87 3.7-6.06-.97-13.44 3.19-19.14 2.21-11.63-1.19-22.49 1.71-33.64 4.51-5.28.26-10.46 1.28-15.61 2.18-5.15.92-10.25 1.79-15.43 1.63-4.61 1.85-10.28.13-15.54 1.37l.25.35c-2.11-.84-3.97 2.34-5.46.82l.19-.12c-1.17-.69-1.97 2.49-2.76 1.56l-.08.46c-1.19.35-.23-.46-1.21-.47-.34.12.01.81-.77.7-.5-1.75-2.89.97-3.38-1 .67-.13-1.21-.56.21-1.27-.46-.13-2.53.41-2.16 1.21.03.93-.58 1.88.8 2.3l.1-.7c.55.56.38.26.63.71 1.62-.24 2.03.67 3.25.83-.02-.02-.03-.03-.02-.07.63-.94 1.82-.67 2.46-.67l.32.32c.52.69 1.56-1.82 1.31-.43 3.21-.93 7-1.52 10.68-2.16.44-.58 2.83-.39 1.87-1.23 1.1.95 3.89.8 4.9.6-.02.11-.05.23-.21.22 2.19 1.12 2.14-1.68 4.26-.23.11-1.27 3.43-.09 4.27-1.68.27.24.38.48.33.71 3.35-.45 7.1-.54 9.94-.88 2.28-1.4 5.93-.28 7.82-2.04 1.77.09 4.64.35 6.98-.57l-.21.21c2.71-.46 6.1-.92 7.86-2.09.98 1.33 2.12.91 3.36 1.22 1.74-.88 5.43-1.13 8.14-2.06.5.61 2.26-.56 2.51.39 7.57-2.74 17.29-3.13 25.74-2.66l-.11.08c1.02-.64 2.15-1.93 3.18-2.72.12.07.12.23-.11.25 1.5-.33 3.02.47 4.52.14 0 .16 0 .16-.23.34 1.38-.57 3.02.47 4.63-.44l.12.24 1.03-.46c.01.32.01.8-.57.76 6.54-.49 13.14-1.54 19.79-2.49 6.65-.96 13.35-1.93 20.07-2.43l-.46.35 2.55-.78c0 .16-.12.25-.23.33 3.36.24 6.72-1 9.97-1.12 0 .16-.46.5 0 .64 2.32-1.07 3.94.8 4.98-1.1.12.07.23.47 0 .64 6.61-1.16 13.45-1.7 20.18-1.97 2.73-1.05 5.68-1.34 8.67-1.58 2.99-.23 6-.41 8.86-1.28v.33c7.43-1.72 15.5-1.11 23.28-1.93 3.25-.12 5.4-.67 8.65-.94l.11.4c5.37-1.92 11.61.59 17.2-1.51l-.36.58c.83-.92 3.48.06 3.04-1.38l1.04.37c3.75-2.2 7.13.4 11.8-1.18l-.29.37c1.25-.36 2.71-.67 3.67-.42-.14.06-.07.16-.36.27 4.05 1.11 8.36-.74 12.54-.95l-.43.68c1.97-.89 5.72-.41 8.36-.92l-.14.31 1.32-.51.07.61c3.42-.17 6.64-.9 10.01-1.19z"/><path d="M563.05 376.07c-.01-.01-.03-.01-.04-.02-.1.06-.05.06.04.02zM219.98 411.68c-.16-.01-.3-.02-.44-.04.06.11.3.03.44.04z"/></g><g><path d="m152.21 433.13-.01-.18-.04.52zM151.99 434.29c.01.09 0 .25.01.35l.13-1.48c-.06-.85-.1 1.69-.14 1.13zM151.95 434.14c-.05-.35-.07.35-.08.59.01-.54.09.16.08-.59zM147.49 434.49s.01-.02.02-.05c-.01-.02-.01 0-.02.05z"/><path d="m146.33 436.85-.01.56c.22-.99.46.02.69-.42l-.02.2c.58.22 1.12-.71 1.7-1.13-.01.06-.01.22-.02.29.03-.19.06-.55.09-.5.01.12-.01.26-.02.31.12.92.36-.58.43.13.03-.1.05-.48.03-.77.45-.23.94-.41 1.4-1.13.02.13.03.38.02.69.39-1.49.81-.9 1.21-.65.02-.39-.04-.42 0-.82-.13-.49-.24.96-.35.25l.02-.38c-.09-.24-.02.95-.11.46-.03-.32.01-.48-.01-.51-.18.15-.37-.19-.54.73-.04-.82-.2-.03-.26-.81-.05.32-.09.24-.11.78-.64-.43-1.28.36-1.94.3-.3 1.59-.67-.31-1.03.23v-.16c-.12.39-.29.58-.43.38l-.12.67c-.85-1.38-1.71-.41-2.57-.98-.98-.4-1.83-1.54-2.78.55 0-.15-.01-.24.02-.3-.27.32-.52-.25-.78.08v-.16c-.64 1.31-1.34-.18-1.95 1.24-.75-.14-1.6 0-2.4.4v-.31c-.64.66-1.25-1-1.89-.5-.65-.72-1.35 1.8-2.01.85-.41-1.54-.94 1.77-1.33.17-.79-2.41-1.55-.86-2.34.59-.73-.86-1.45 1.35-2.16-.41-.33 1.12-.7-1.39-1.07-1.07l.01.39c-.13-1.18-.3 1.65-.38-.1l.01-.08c-.07-.89-.16 2.1-.21 1.04l-.01.44c-.09.13-.01-.5-.08-.68-.02.06-.01.8-.06.55-.01-1.8-.21.39-.22-1.63.05 0-.07-.79.03-1.21-.03-.21-.17-.11-.16.75-.01.91-.07 1.71.02 2.41l.02-.66c.03.66.02.33.03.83.11.09.13 1.05.21 1.45v-.07c.06-.8.13-.32.18-.21l.02.37c.03.77.13-1.51.09-.18.23-.33.5-.31.75-.33.04-.5.2.05.14-.93.06 1.11.26 1.39.33 1.35 0 .1-.01.22-.02.18.14 1.44.16-1.33.29.43.02-1.24.24.4.31-1.06.02.28.02.53.02.75.23.03.49.48.69.53.17-1.09.41.49.55-1.01.12.32.31.95.48.34l-.02.18c.19-.09.43-.17.56-1.11.06 1.44.14 1.15.22 1.61.13-.67.38-.47.57-1.08.03.66.16-.28.17.68.54-1.86 1.21-1.21 1.79.2l-.01.07c.07-.53.16-1.7.24-2.38.01.08.01.24-.01.24.11-.18.2.77.31.59 0 .16 0 .16-.02.31.1-.43.2.77.32.02l.01.26.07-.36c0 .32 0 .8-.04.69.91.31 1.84-1.34 2.77-1.1l-.03.3.18-.54c0 .16-.01.24-.02.31.23.54.47-.36.69-.22 0 .15-.03.46 0 .64.17-.87.27 1.13.35-.68.01.08.01.49 0 .64.46-.6.93-.57 1.4-.27.39-1.64.82-.15 1.22-1.45v.33c.52-1.14 1.07.08 1.61-.15.22.13.37-.25.6-.27l.01.41c.38-1.55.8 1.39 1.19-.31l-.03.55c.06-.86.24.3.22-1.16l.07.44c.27-1.94.49.89.82-.36l-.02.35c.09-.27.19-.48.25-.16-.01.05-.01.15-.03.24.27 1.38.58-.14.87-.09l-.03.65c.14-.76.4-.05.58-.4l-.01.3.09-.43v.61c.23-.01.46-.54.69-.61z"/><path d="M148.74 436.15v-.02c-.01.06 0 .05 0 .02zM124.93 439.3c-.01-.04-.02-.07-.03-.12.01.12.02.1.03.12z"/></g><g><path d="m623.79 387.1-.26-.08-.22.68zM621.29 389.56c.13.04.16.2.29.25l1.11-2.17c-1.16-.38-.63 2.18-1.4 1.92zM620.7 389.68c-.84.01-.82.78-.88 1.06.01-.6 1.36-.46.88-1.06zM558.31 414.11c.07-.02.15-.07.21-.11-.11.01-.18.05-.21.11z"/><path d="m542.04 421.12-.04.58c2.95-1.71 6.76-1.81 9.99-3.18l-.17.25c2.13-.56 4.21-1.17 6.25-1.82 2.04-.66 4.05-1.31 6.01-2.12 3.94-1.56 7.85-3.18 11.93-4.74-.11.1-.1.27-.21.37.34-.31.67-.79 1.13-.9.16.08-.04.28-.17.38 2.07.34 4.9-2.4 6.23-2.1.45-.27.54-.71.17-.88 3.16-1.29 6.44-2.61 9.7-3.99 3.25-1.43 6.42-3.08 9.48-4.73.36-.01.51.19.55.52 1.22-.92 2.51-1.72 3.84-2.44 1.34-.71 2.72-1.35 4.08-2.03 2.75-1.31 5.61-2.43 8.4-3.62.04-.45-.74-.11-.38-.73-1.97.39-2.81 2.39-4.71 2.5l.05-.44c-1.26.33.17.97-1.24 1.1-.61-.06-.08-.49-.31-.41-1.2.65-2.48 1.21-3.7 1.84-1.24.58-2.44 1.23-3.44 2.15-.91-.51-2.72 1.11-3.95.77-.53.57-1.21.77-1.25 1.37-2.25.82-4.47 1.72-6.69 2.66-2.26.86-4.51 1.74-6.77 2.65-4.52 1.79-9.02 3.77-13.72 5.18-1.93 1.46-4.36 2.18-6.93 2.79-2.57.62-5.26 1.17-7.81 2.13-.05-.04-.06-.1-.04-.16-1.6.87-4.04 1.76-6.13 2.16l-1.55 1.14c-12.65 2.19-25.12 6.1-37.94 8.25-3.62.7-7.17 1.15-10.64 1.7-3.46.55-6.87 1.09-10.26 1.62-3.39.52-6.76 1.11-10.14 1.85-1.69.37-3.39.77-5.1 1.22-1.71.41-3.44.86-5.18 1.37 0-.15-.13-.22.23-.34-4.06.89-7.88.85-11.71 1.71l-.01-.16c-4.73 1.24-9.75 1.76-14.72 2.32-4.97.56-9.92.94-14.5 2.11-11.35.94-24.19 1.96-36.21 3.03l.01-.32c-9.61 1.13-18.99-.14-28.59.57-4.95-.2-10.03.28-15.13.77-5.1.51-10.21.86-15.21.38-1.54-.39-3.21-.47-4.93-.41-1.72.04-3.5.23-5.26.43-3.53.38-7.03.77-9.91-.1-11.86-2.71-23.43-1.56-35.43-.75-10.93-1.46-22.06.01-32.55-2.62-5.13.69-10.46-2.31-16.07-2.56l.16.41c-1.88-1.39-4.64 1.19-5.71-.7l.22-.06c-.96-1.01-2.7 1.81-3.22.69l-.22.42c-1.3-.02-.1-.51-1.07-.8-.38.01-.23.78-.98.44.04-1.81-3.2.01-3.03-2.01.7.09-1-.92.62-1.14-.42-.26-2.56-.43-2.48.44-.3.88-1.25 1.55-.04 2.43l.35-.62c.36.72.29.37.39.89 1.7.3 1.81 1.29 3 1.83-.01-.02-.02-.04 0-.07.94-.69 2.04-.08 2.7.1l.23.4c.32.81 2.12-1.28 1.45-.02 3.53.06 7.52.5 11.42.85.59-.45 2.98.33 2.22-.72.87 1.2 3.75 1.74 4.83 1.79-.05.1-.11.21-.27.16 1.97 1.62 2.59-1.11 4.41.81.41-1.2 3.53.69 4.76-.68.22.29.28.55.18.76 3.53.32 7.4 1.05 10.39 1.31 2.63-.91 6.16.93 8.46-.45 1.8.43 4.71 1.23 7.29.78l-.26.17c2.88.08 6.47.16 8.48-.68.78 1.48 2.03 1.25 3.26 1.78 1.95-.56 5.81-.24 8.76-.73.42.68 2.42-.19 2.54.78 8.27-1.57 18.36-.67 27.11.83l-.13.07c1.14-.51 2.47-1.66 3.63-2.33.11.08.1.24-.14.24 1.6-.18 3.09.78 4.69.6-.01.16-.01.16-.27.31 1.5-.43 3.1.78 4.87.03l.1.26 1.13-.36c-.03.32-.07.8-.67.69 3.43.1 6.9.03 10.38-.13 3.48-.15 6.98-.35 10.49-.58 7.01-.55 14.07-1 21.11-1.23l-.5.32 2.71-.66c-.01.16-.13.25-.26.32 3.5.38 7.07-.62 10.46-.7-.01.16-.5.49-.02.64 2.46-1.02 4.09.89 5.25-.99.12.08.22.48-.02.64 3.47-.52 7-.82 10.53-1.12 3.53-.3 7.08-.49 10.61-.61 1.43-.52 2.91-.85 4.43-1.08 1.52-.26 3.07-.42 4.62-.56 3.12-.3 6.27-.55 9.23-1.49v.33c3.87-.9 7.88-1.44 11.97-1.76 4.08-.35 8.22-.54 12.24-1.25 3.38-.34 5.59-1.04 8.96-1.53l.14.39c1.36-.58 2.8-.88 4.28-1.07 1.48-.21 3-.29 4.52-.37 3.05-.17 6.15-.36 8.95-1.68l-.31.61c.77-.99 3.62-.29 3.02-1.68l1.12.26c3.64-2.67 7.43-.51 12.08-2.67l-.25.4c1.25-.51 2.72-1.01 3.75-.88-.14.08-.05.17-.34.31 4.35.55 8.54-2 12.82-2.86l-.34.74c.95-.6 2.41-.93 3.96-1.23.78-.15 1.58-.29 2.35-.46.77-.19 1.5-.39 2.16-.65l-.09.34 1.26-.76.18.59c3.46-.83 6.63-2.18 10.04-3.11z"/><path d="M576.76 409.96c-.01 0-.03 0-.04-.01-.09.09-.04.07.04.01zM219.78 439.86c-.16-.06-.29-.11-.43-.18.03.13.3.13.43.18z"/></g><g><path d="m648.91 428.43-.31-.05-.35.75zM645.58 431.39c.16.03.17.19.33.22l1.59-2.45c-1.41-.24-.99 2.39-1.92 2.23zM644.84 431.6c-1.04.13-1.09.94-1.19 1.25.06-.64 1.73-.68 1.19-1.25zM564.63 465.07c.09-.03.2-.09.28-.14-.15.03-.24.08-.28.14z"/><path d="m543.49 473.84-.08.6c3.81-2.17 8.69-2.57 12.89-4.27l-.24.27c2.75-.76 5.43-1.58 8.07-2.43 2.63-.87 5.18-1.92 7.73-2.91 5.09-2.03 10.17-4.05 15.44-6.15-.14.12-.14.29-.29.42.44-.38.88-.93 1.47-1.11.19.06-.07.3-.23.43 2.55-.01 6.34-3.09 7.98-2.97.59-.33.73-.8.28-.94 4.07-1.73 8.33-3.43 12.51-5.33 4.14-2.01 8.27-4.08 12.23-6.23.45-.06.62.14.64.47 6.49-4.31 13.83-7.55 20.99-10.82.09-.48-.91-.01-.4-.72-2.48.69-3.7 2.93-6.07 3.32l.1-.47c-1.6.53.12 1.01-1.64 1.34-.75.02-.06-.51-.35-.39-3.1 1.72-6.51 3.12-9.21 5.23-1.1-.41-3.49 1.51-5.01 1.33-.71.67-1.58.96-1.68 1.6-2.88 1.16-5.74 2.39-8.6 3.66l-2.14.97c-.72.32-1.45.59-2.18.89-1.45.6-2.91 1.2-4.37 1.8-2.92 1.21-5.84 2.42-8.77 3.64-2.94 1.18-5.85 2.47-8.89 3.43-5.11 3.42-12.48 3.94-19 6.73-.06-.04-.07-.1-.04-.16-2.08 1.04-5.26 2.17-7.95 2.77l-2.04 1.31c-4.07.85-8.11 1.85-12.15 2.94-4.08.94-8.14 1.96-12.21 3.01l-6.1 1.59c-2.04.52-4.07 1.09-6.13 1.51-4.11.9-8.24 1.77-12.37 2.54-2.34.46-4.65.91-6.93 1.36-2.28.43-4.56.74-6.8 1.12-4.49.71-8.9 1.43-13.27 2.22l-3.28.61-3.29.55c-2.19.37-4.38.78-6.59 1.22-4.4.87-8.83 1.93-13.36 3.12 0-.16-.16-.22.31-.35-5.29 1.01-10.22 1.07-15.2 2.05v-.16c-6.14 1.53-12.66 2.07-19.11 2.72-3.23.31-6.44.64-9.59 1.03-3.16.33-6.26.74-9.25 1.33-3.68.27-7.48.55-11.35.84-3.88.24-7.83.48-11.81.73-3.98.26-7.98.52-11.97.79-3.99.22-7.96.44-11.86.65l.03-.32c-3.12.26-6.22.43-9.3.42-3.09-.01-6.16-.1-9.23-.19-3.07-.09-6.14-.19-9.22-.22-3.08-.07-6.17-.11-9.29 0-3.21-.2-6.45-.19-9.73-.09-3.28.1-6.58.2-9.89.35-3.31.13-6.62.26-9.92.28-3.29 0-6.57-.18-9.79-.54-3.97-.95-8.61-.62-13.2-.47-4.59.18-9.12.36-12.83-.65-15.26-3.42-30.27-2.97-45.81-3.14-14.08-2.3-28.51-1.76-41.96-5.42-3.32.1-6.68-.75-10.11-1.7-3.43-.97-6.92-2.07-10.54-2.49l.19.43c-2.38-1.6-6.02.68-7.33-1.33l.28-.03c-1.21-1.12-3.52 1.51-4.17.32l-.3.39c-1.67-.17-.11-.52-1.35-.92-.49-.03-.32.76-1.28.32.11-1.81-4.11-.36-3.84-2.38.9.17-1.25-1.04.84-1.07-.54-.31-3.28-.75-3.2.14-.42.84-1.66 1.4-.12 2.44l.47-.58c.44.76.37.41.47.94 2.18.51 2.29 1.52 3.8 2.2-.01-.02-.02-.04.01-.07 1.22-.58 2.63.16 3.47.42l.28.42c.39.85 2.77-1.05 1.87.14 4.54.46 9.67 1.33 14.69 2.09.78-.39 3.83.64 2.88-.49 1.08 1.3 4.78 2.12 6.18 2.28-.07.09-.14.2-.35.13 2.49 1.82 3.38-.85 5.66 1.25.57-1.17 4.54 1.01 6.17-.24.27.32.35.58.2.78 4.54.66 9.52 1.72 13.38 2.25 3.42-.66 7.93 1.45 10.94.26 2.31.57 6.05 1.64 9.4 1.37l-.34.15c3.72.28 8.36.65 10.99-.04.96 1.54 2.59 1.42 4.15 2.02 2.54-.46 7.52.16 11.35-.12.53.71 3.14-.02 3.26.96 5.37-.54 11.32-.43 17.32.1 6.01.45 12.09 1.3 17.73 2.32l-.17.06c1.5-.45 3.25-1.57 4.77-2.19.14.09.12.25-.19.23 2.08-.1 3.97.93 6.05.83-.02.16-.02.16-.36.3 1.96-.35 3.98.93 6.3.27l.12.26 1.47-.3c-.05.32-.12.79-.89.66 4.44.25 8.93.26 13.44.27 4.51 0 9.05-.05 13.6-.24 4.55-.15 9.11-.3 13.68-.39 4.57-.14 9.14-.29 13.7-.29l-.67.31 3.53-.59c-.02.16-.18.24-.35.32 4.52.52 9.18-.56 13.57-.58-.02.16-.67.49-.05.64 3.22-.98 5.27.95 6.83-.91.15.08.27.48-.05.64 2.26-.23 4.53-.4 6.81-.58 2.28-.2 4.57-.37 6.86-.51 4.59-.28 9.19-.46 13.75-.56 7.45-2.23 16.03-1.36 23.77-3.36l-.01.33c10.04-2.2 20.94-1.97 31.39-3.67 4.37-.44 7.27-1.18 11.63-1.8l.17.39c7.1-2.7 15.66-1.03 23.02-3.99l-.43.64c1.03-1.07 4.66-.57 3.95-1.93l1.42.18c4.81-2.88 9.58-.9 15.68-3.33l-.35.42c1.63-.58 3.53-1.26 4.84-1.21-.18.09-.07.17-.45.35 5.54.18 11.06-2.6 16.59-3.78l-.48.77c2.52-1.27 7.53-1.91 10.94-3.13l-.14.35 1.66-.87.2.58c4.56-1.15 8.7-2.74 13.1-3.99z"/><path d="M588.25 458.7c-.01 0-.03.01-.05 0-.11.1-.05.07.05 0zM126.55 487.47c-.21-.08-.38-.15-.55-.23.02.13.37.17.55.23z"/></g><g><path d="m648.71 480.72-.31-.03-.27.78zM645.73 483.89c.15.02.19.18.34.2l1.33-2.54c-1.38-.15-.76 2.44-1.67 2.34zM645.03 484.14c-1 .2-.98 1-1.04 1.32 0-.63 1.61-.78 1.04-1.32zM569.51 521.67c.08-.04.19-.1.26-.15-.15.03-.23.09-.26.15z"/><path d="m549.55 531.45-.04.6c3.58-2.29 8.33-2.83 12.28-4.79l-.21.29c10.52-3.58 19.65-8.35 29.54-13.12-.13.12-.12.3-.25.43.41-.39.8-.96 1.36-1.16.19.05-.05.3-.2.43 2.49-.11 5.98-3.32 7.59-3.27.55-.37.65-.84.2-.95 7.67-3.88 15.85-8.07 23.18-12.87.43-.09.61.1.66.43 2.94-2.43 6.19-4.42 9.5-6.37 3.33-1.91 6.79-3.63 10.09-5.55.05-.49-.88.05-.45-.69-2.34.85-3.33 3.18-5.63 3.65l.06-.47c-1.52.59.2.99-1.5 1.4-.73.06-.1-.5-.38-.37-2.91 1.83-6.15 3.37-8.57 5.68-1.1-.34-3.26 1.73-4.75 1.64-.63.71-1.45 1.06-1.5 1.7-10.85 5.21-21.59 11.24-32.94 16.12-2.35 1.85-5.31 3.01-8.44 4.11-3.14 1.08-6.48 1.99-9.57 3.51-.06-.03-.08-.09-.05-.15-1.93 1.21-4.93 2.49-7.5 3.24l-1.89 1.41c-15.56 4.22-30.91 10.09-46.84 13.78-18.04 4.4-34.08 6.79-51.46 12.12 0-.16-.16-.21.28-.36-2.53.66-5.01.98-7.43 1.35-2.43.34-4.81.73-7.22 1.26l-.01-.16c-11.84 3.27-25.12 3.51-36.65 6.19-14.26 1.43-30.39 2.9-45.52 4.1l.02-.32c-12.1 1.3-23.88 0-35.96.65-12.43-.57-25.62 1.83-38.17.51-7.71-1.77-18.05 1.12-25.27-.91-14.83-3.23-29.39-2.84-44.48-2.91-13.67-2.26-27.68-1.76-40.71-5.45-6.46.18-13-3.39-20-4.28l.18.43c-2.29-1.6-5.86.64-7.1-1.37l.28-.03c-1.15-1.12-3.45 1.49-4.06.29l-.3.39c-1.62-.18-.1-.53-1.29-.94-.47-.04-.33.75-1.25.31.14-1.8-3.99-.4-3.69-2.41.87.18-1.2-1.05.83-1.06-.51-.31-3.17-.78-3.11.11-.42.84-1.65 1.38-.17 2.43l.47-.58c.41.77.35.41.44.94 2.11.54 2.2 1.53 3.65 2.24-.01-.02-.02-.04.01-.07 1.2-.57 2.55.18 3.36.45l.26.43c.36.86 2.71-1.02 1.81.16 4.4.5 9.38 1.39 14.25 2.19.76-.39 3.72.66 2.81-.48 1.04 1.3 4.62 2.14 5.97 2.31-.07.09-.14.2-.35.13 2.4 1.82 3.3-.85 5.49 1.27.56-1.17 4.4 1.04 5.99-.21.26.32.33.58.19.78 4.41.65 9.24 1.74 12.98 2.27 3.33-.67 7.7 1.44 10.62.26 2.24.57 5.87 1.62 9.13 1.34l-.33.15c3.61.29 8.11.66 10.67-.05.93 1.54 2.51 1.4 4.03 1.99 2.47-.45 7.31.17 11.03-.15.51.71 3.05-.04 3.17.93 10.43-1.07 23.09.32 34.06 2.16l-.16.06c1.45-.48 3.14-1.59 4.62-2.22.14.09.12.25-.19.23 2.01-.11 3.86.92 5.88.79-.02.16-.02.16-.35.3 1.9-.38 3.88.88 6.12.19l.12.26 1.42-.32c-.04.32-.11.8-.86.67 17.29.68 35.13-1.01 52.84-1.43l-.64.33 3.42-.66c-.01.16-.17.25-.33.32 4.4.4 8.9-.76 13.17-.81-.01.16-.64.5-.03.64 3.11-1.06 5.14.83 6.61-1.07.15.08.28.47-.04.64 4.37-.53 8.8-1.04 13.25-1.38 4.44-.4 8.91-.67 13.33-.95 7.18-2.33 15.53-1.72 22.97-3.98v.33c9.68-2.32 20.24-2.66 30.34-4.57 4.22-.61 7.01-1.42 11.21-2.26l.18.38c3.4-1.44 7.19-1.75 11-2.23 3.81-.45 7.68-.9 11.17-2.58l-.39.65c.95-1.09 4.51-.7 3.75-2.03l1.39.14c2.28-1.48 4.58-1.84 7.05-2.11 2.47-.3 5.12-.47 7.99-1.89l-.31.44c1.54-.68 3.37-1.38 4.64-1.38-.17.1-.06.17-.42.36 5.42.06 10.6-3.04 15.9-4.47l-.42.8c2.34-1.49 7.21-2.23 10.46-3.57l-.11.35c.52-.3 1.04-.62 1.56-.94l.23.57c2.17-.68 4.24-1.48 6.29-2.28 2.04-.79 4.06-1.61 6.14-2.38z"/><path d="M592.03 514.13c-.01 0-.03.01-.05 0-.11.1-.05.07.05 0zM146.11 552.89c-.2-.08-.36-.15-.53-.23.02.13.35.17.53.23z"/></g><g><path d="m630.52 540.23-.29-.03-.16.75zM628.14 543.31c.14.01.19.17.34.19l.94-2.46c-1.3-.14-.43 2.35-1.28 2.27zM627.52 543.55c-.89.2-.79.98-.82 1.29-.06-.61 1.4-.77.82-1.29zM559.67 575.56c.08-.03.17-.08.24-.12-.13.02-.21.07-.24.12z"/><path d="m541.33 583.33-.06.59c3.33-1.87 7.6-2.09 11.25-3.56l-.2.26c9.6-2.61 18.02-6.4 27.05-10.29-.12.11-.11.28-.24.4.37-.35.74-.87 1.25-1.02.17.07-.05.29-.18.41 1.13.05 2.51-.63 3.78-1.31 1.26-.69 2.41-1.4 3.14-1.32.5-.32.59-.77.18-.91 7.02-3.12 14.39-6.79 20.92-11.07.39-.07.57.12.62.45 5.21-4.38 11.38-7.48 17.18-11.03-.01-.47-.8.05-.48-.67-2.05.82-2.82 2.96-4.86 3.44l.01-.46c-1.34.56.26.96-1.25 1.35-.66.05-.13-.49-.37-.37-2.53 1.71-5.44 3.02-7.5 5.23-1.02-.38-2.91 1.53-4.28 1.37-.55.66-1.28.96-1.3 1.59-9.7 4.54-19.46 9.62-29.84 13.41-2.15 1.63-4.86 2.5-7.72 3.3-2.88.75-5.91 1.38-8.74 2.59-.06-.04-.07-.1-.04-.16-1.79.96-4.53 1.98-6.87 2.49-.58.41-1.16.83-1.75 1.22-14.19 2.68-28.25 7.01-42.71 9.31-16.38 2.82-30.88 3.92-46.65 8.08 0-.16-.14-.22.27-.34-4.6.9-8.89.86-13.22 1.67v-.16c-10.71 2.54-22.62 2.15-33.01 4.35-12.8.88-27.28 1.87-40.83 2.8l.02-.32c-10.84 1.1-21.39-.28-32.21.4-11.15-.53-22.92 2.03-34.18.99-6.94-1.58-16.13 1.57-22.64-.16-13.37-2.71-26.41-1.61-39.9-.78-12.33-1.43-24.82.05-36.69-2.53-5.76.73-11.83-2.25-18.15-2.45l.19.41c-2.16-1.37-5.18 1.22-6.44-.65l.25-.06c-1.12-.99-2.97 1.84-3.6.72l-.23.42c-1.46-.01-.13-.51-1.23-.79-.43.02-.23.78-1.09.45-.02-1.81-3.59.05-3.49-1.98.79.08-1.16-.9.66-1.15-.49-.25-2.91-.4-2.78.47-.3.88-1.34 1.57.06 2.43l.37-.63c.43.71.34.37.47.88 1.92.28 2.09 1.27 3.44 1.8-.01-.02-.02-.04 0-.07 1.02-.7 2.29-.11 3.03.07l.27.4c.39.81 2.34-1.31 1.63-.04 3.96.03 8.47.43 12.86.76.66-.45 3.36.31 2.48-.74 1.01 1.19 4.27 1.72 5.48 1.77-.05.1-.11.21-.3.16 2.25 1.61 2.89-1.13 4.97.79.43-1.21 3.99.67 5.34-.7.25.29.33.55.21.76 3.98.29 8.35 1.01 11.71 1.27 2.94-.92 6.94.89 9.5-.48 2.03.42 5.32 1.23 8.22.76l-.29.17c3.24.07 7.28.17 9.53-.68.89 1.48 2.3 1.25 3.68 1.77 2.19-.58 6.54-.21 9.85-.71.48.68 2.73-.19 2.86.78 9.29-1.56 20.66-.64 30.51.9l-.14.07c1.29-.51 2.78-1.66 4.08-2.33.13.09.11.24-.16.24 1.8-.16 3.47.8 5.27.64-.02.16-.02.16-.31.31 1.69-.41 3.48.8 5.48.06l.11.26 1.27-.35c-.03.32-.08.8-.76.69 15.47.37 31.41-1.47 47.27-1.71l-.57.32 3.06-.63c-.01.16-.16.24-.3.32 3.94.42 7.97-.64 11.79-.65-.01.16-.58.49-.03.64 2.79-.99 4.59.93 5.92-.94.14.08.24.48-.04.64 7.83-.95 15.89-1.38 23.82-1.61 6.47-2.08 13.94-1.15 20.65-3.05l-.01.33c8.73-1.88 18.2-1.65 27.32-2.93 3.8-.34 6.32-.99 10.12-1.53l.15.39c6.19-2.37 13.65-.45 20.06-3.19l-.37.62c.9-1.01 4.07-.34 3.45-1.73l1.25.25c2.1-1.31 4.18-1.47 6.41-1.53 2.23-.07 4.61-.07 7.25-1.23l-.3.41c1.42-.54 3.08-1.07 4.23-.96-.16.08-.06.17-.39.32 2.43.26 4.84-.27 7.25-.98 2.41-.7 4.82-1.55 7.22-2.08l-.41.75c2.16-1.28 6.59-1.47 9.55-2.58l-.12.34 1.44-.79.18.59c3.98-.88 7.57-2.36 11.39-3.44z"/><path d="M580.21 570.12h-.05c-.09.09-.04.07.05 0zM178.17 602.63c-.18-.05-.34-.11-.49-.17.03.13.33.13.49.17z"/></g><g><path d="m569.91 617.86-.23-.1-.18.64zM567.79 620.05c.12.05.14.21.26.26l.91-2.01c-1.03-.47-.49 2.06-1.17 1.75zM567.27 620.11c-.74-.06-.7.69-.74.96-.01-.58 1.18-.33.74-.96zM513.37 639.03c.06-.02.13-.06.18-.09-.1 0-.15.04-.18.09z"/><path d="m499.35 644.84-.03.58c2.51-1.6 5.85-1.22 8.62-2.42l-.15.24c3.68-.83 7.14-1.89 10.57-3.04 3.42-1.18 6.77-2.57 10.29-3.81-.09.09-.09.26-.18.35.29-.29.57-.74.97-.81.14.09-.03.28-.14.37 1.78.44 4.27-1.85 5.4-1.52.39-.23.46-.66.14-.86 5.44-2.08 11.34-4.12 16.57-7.01.31.02.45.23.49.55 2.09-1.61 4.44-2.7 6.84-3.69 2.37-1.05 4.85-1.9 7.26-2.82.02-.44-.65-.17-.35-.74-1.71.21-2.4 2.09-4.06 2.04l.03-.42c-1.09.21.17.97-1.06.97-.53-.11-.08-.49-.29-.43-2.05 1.12-4.45 1.63-6.16 3.27-.8-.57-2.35.87-3.43.44-.45.52-1.04.65-1.06 1.25-3.85 1.32-7.75 2.65-11.64 4.1-1.95.72-3.89 1.47-5.86 2.17-1.98.64-3.98 1.26-5.99 1.84-1.66 1.31-3.75 1.84-5.96 2.27-2.21.44-4.58.63-6.76 1.48-.05-.05-.05-.11-.04-.16-1.37.75-3.47 1.48-5.27 1.74l-1.33 1.03c-2.72.35-5.46.68-8.16 1.19-2.71.48-5.41 1.07-8.11 1.65-2.72.53-5.44 1.05-8.16 1.58-2.73.5-5.45 1.03-8.21 1.31-6.25.82-12.11 1.48-17.93 2.16-2.9.37-5.79.82-8.69 1.41-2.91.54-5.83 1.2-8.82 2.08 0-.15-.11-.23.2-.33-3.48.74-6.74.56-10.03 1.2l-.01-.16c-4.05 1.04-8.34 1.47-12.6 1.79-4.26.31-8.48.63-12.41 1.66-4.86.23-10.03.58-15.26.95-5.24.3-10.55.74-15.69 1.12l.01-.31c-4.1.46-8.16.35-12.21.2-4.05-.19-8.1-.41-12.2-.08-4.23-.31-8.56.15-12.92.61-4.35.43-8.72.77-12.98.28-5.25-1.62-12.24 1.61-17.16-.15-10.11-2.64-20-1.51-30.25-.56-9.33-1.35-18.84.27-27.79-2.17-4.39.79-8.93-2.1-13.72-2.21l.14.4c-1.6-1.34-3.97 1.3-4.88-.56l.19-.06c-.82-.98-2.31 1.88-2.76.77l-.19.42c-1.11.02-.08-.51-.91-.77-.32.02-.2.79-.84.46.04-1.81-2.73.11-2.59-1.92.6.07-.85-.88.54-1.16-.36-.25-2.19-.35-2.13.52-.26.89-1.08 1.59-.04 2.42l.3-.63c.3.7.25.36.33.87 1.45.25 1.55 1.23 2.56 1.74-.01-.02-.02-.04 0-.07.8-.72 1.75-.14 2.3.03l.19.39c.27.8 1.82-1.34 1.24-.06 3.01-.03 6.43.3 9.76.57.51-.46 2.55.26 1.9-.77.74 1.18 3.2 1.67 4.12 1.69-.04.1-.09.22-.23.16 1.67 1.57 2.22-1.16 3.76.72.36-1.21 3.02.63 4.07-.76.19.29.24.54.15.76 3.02.24 6.32.93 8.87 1.14 2.25-.95 5.26.83 7.22-.57 1.54.4 4.02 1.17 6.22.68l-.22.17c2.45.06 5.52.11 7.25-.75.66 1.47 1.73 1.23 2.77 1.74 1.67-.58 4.96-.25 7.48-.77.36.68 2.07-.21 2.16.76 3.53-.79 7.45-.98 11.42-.77 3.97.23 7.99.82 11.72 1.57l-.11.07c.98-.51 2.12-1.67 3.11-2.33.1.09.08.25-.12.24 1.37-.16 2.63.82 4 .65-.01.16-.01.16-.24.31 1.28-.42 2.64.79 4.15.05l.08.26.96-.35c-.03.32-.07.8-.58.69 11.73.42 23.82-1.41 35.84-1.45l-.43.32 2.32-.62c-.01.16-.12.24-.23.32 2.99.44 6.04-.56 8.94-.52-.01.16-.43.48-.02.64 2.11-.93 3.49.99 4.49-.86.1.08.19.48-.02.64 5.94-.89 12.05-1.1 18.07-1.23 2.45-.97 5.08-1.18 7.75-1.34 2.66-.2 5.36-.38 7.89-1.23v.33c6.61-1.62 13.8-1.17 20.72-2.07 2.89-.17 4.79-.82 7.67-1.17l.12.4c2.34-1.06 4.93-1.02 7.55-1 2.62-.03 5.26-.1 7.67-1.29l-.27.6c.66-.96 3.1-.13 2.59-1.54l.96.31c3.15-2.37 6.38-.05 10.37-1.99l-.22.39c1.07-.45 2.33-.88 3.21-.7-.12.07-.04.16-.29.3 1.86.39 3.7.05 5.54-.46 1.83-.56 3.64-1.28 5.48-1.61l-.3.72c1.63-1.09 5.02-1.02 7.28-1.81l-.08.33 1.09-.65.15.6c3.07-.6 5.8-1.78 8.72-2.49z"/><path d="M529.3 636.31c-.01 0-.02 0-.04-.01-.07.08-.03.06.04.01zM223.74 657.71c-.14-.05-.25-.1-.37-.16.02.13.25.12.37.16z"/></g></svg>